<?xml version="1.0" encoding="utf-8"?>
<!-- Generator: Adobe Illustrator 27.5.0, SVG Export Plug-In . SVG Version: 6.00 Build 0)  -->
<svg version="1.1" xmlns="http://www.w3.org/2000/svg" xmlns:xlink="http://www.w3.org/1999/xlink" x="0px" y="0px"
	 viewBox="0 0 600 600" style="enable-background:new 0 0 600 600;" xml:space="preserve">
<g id="background">
	<rect style="fill:#FFC08D;" width="600" height="600"/>
	<rect style="display:none;fill:#9AE889;" width="600" height="600"/>
</g>
<g id="objects">
	<g>
		<ellipse style="fill:#E0A273;" cx="300" cy="545.827" rx="172.36" ry="12.411"/>
		<path style="fill:#E07D46;" d="M442.345,353.085c-4.904,3.299-10.471,4.875-15.978,4.875c-9.41,0-18.654-4.583-24.172-13.03
			c-11.298-17.272-26.478-42.271-37.795-67.572c0.817,2.559,16.591,52.732,10.305,117.404c0,0,12.086,44.072,20.454,108.812
			c2.501,19.365-10.646,37.377-29.894,40.666c-0.38,0.068-0.769,0.136-1.158,0.195c-19.053,3.153-37.299-9.03-41.6-27.85
			c-4.136-18.08-11.599-67.027-16.796-102.448c-0.866-5.897-9.39-5.809-10.149,0.097c-5.654,44.14-12.66,79.288-17.934,102.35
			c-4.301,18.82-22.537,31.003-41.58,27.86c-0.399-0.068-0.788-0.136-1.177-0.204c-19.248-3.289-32.394-21.301-29.894-40.666
			c8.369-64.74,20.455-108.812,20.455-108.812c-6.296-64.672,9.488-114.845,10.305-117.404
			c-11.317,25.301-26.498,50.299-37.795,67.572c-8.758,13.39-26.877,17.088-40.15,8.155c-8.281-5.605-13.088-15.093-13.088-24.688
			c0-4.136,0.895-8.301,2.793-12.183c24.084-49.336,49.677-80.592,62.57-94.644c5.099-5.547,11.609-9.585,18.849-11.687
			l23.656-6.909c-24.152-15.579-40.15-42.738-40.15-73.634c0-48.373,39.206-87.579,87.579-87.579s87.579,39.206,87.579,87.579
			c0,30.876-15.978,58.026-40.111,73.605l23.753,6.938c7.23,2.102,13.75,6.14,18.849,11.687
			c12.894,14.052,38.476,45.307,62.57,94.644C458.926,329.089,454.207,345.057,442.345,353.085z"/>
		<circle style="fill:#EF2043;" cx="300" cy="250.982" r="10.706"/>
		<circle style="fill:#EF2043;" cx="300" cy="295.75" r="10.706"/>
		<circle style="fill:#EF2043;" cx="300" cy="340.519" r="10.706"/>
		<path style="fill:#FFFFFF;" d="M368.029,474.976c-0.389,9.955-1.966,18.557-4.768,25.018l-0.049,0.058
			c-2.978,3.221-7.756,4.35-12.212,2.783l-11.726-4.126l-7.931,8.631c-0.876,0.954-1.927,1.732-3.075,2.297
			c-2.112,1.051-4.574,1.421-7.016,1.022c-0.058-0.292-0.117-0.574-0.175-0.876c-0.029-0.126-0.058-0.253-0.078-0.379
			c-0.049-0.272-0.107-0.545-0.165-0.827c-0.117-0.584-0.234-1.177-0.341-1.781c-0.165-0.866-0.331-1.752-0.506-2.657
			c-0.564-3.075-1.168-6.432-1.781-10.003l3.542,1.255l7.872-8.914c2.948-3.338,7.668-4.525,11.989-3.036l11.414,4.038l7.872-8.904
			C362.745,476.484,365.314,475.238,368.029,474.976z"/>
		<path style="fill:#FFFFFF;" d="M261.855,482.819c-2.413,6.889-5.255,13.254-8.622,18.576l-4.097,1.44
			c-4.457,1.567-9.235,0.438-12.212-2.783l-7.902-8.622l-11.726,4.126c-3.824,1.353-8.038,0.662-11.015-1.703
			c1.041-7.473,2.121-14.635,3.221-21.447l6.335,7.191l11.414-4.038c4.252-1.499,9.04-0.321,11.989,3.017l7.872,8.904l11.414-4.038
			C259.616,483.062,260.745,482.858,261.855,482.819z"/>
		<path style="fill:#FFFFFF;" d="M414.641,312.984c-0.399,19.773-13.614,20.883-19.9,20.279c-1.557-2.501-3.153-5.089-4.758-7.756
			l8.184,0.234l3.445-8.057c1.294-3.017,4.272-4.924,7.571-4.856L414.641,312.984z"/>
		<path style="fill:#FFFFFF;" d="M210.047,325.683c-3.289,5.459-6.5,10.578-9.497,15.229h-0.01l-3.863,0.107
			c-0.078,0.01-0.146,0.01-0.224,0.01c-3.104,0-5.926-1.859-7.152-4.729l-3.357-7.853l-8.524,0.243
			c-3.24,0.088-6.121-1.781-7.386-4.719l-3.347-7.843l-8.524,0.243c-3.172,0.097-6.121-1.79-7.376-4.729l-0.467-1.1
			c2.997-5.936,6.004-11.609,9.011-16.99l2.88,6.792l8.836-0.253c3.289-0.088,6.354,1.849,7.658,4.895l3.474,8.135l8.836-0.253
			c3.338-0.078,6.345,1.849,7.639,4.895l3.484,8.145L210.047,325.683z"/>
		<path style="fill:#EF2043;" d="M300.134,165.62c11.933,0,19.903-2.827,24.613-5.321c3.205-1.698,7.181-0.442,8.904,2.75l0,0
			c1.001,1.855,1.074,4.074,0.173,5.98c-2.657,5.618-10.713,16.207-33.69,16.207H300c-22.977,0-31.033-10.589-33.69-16.207
			c-0.901-1.906-0.829-4.125,0.173-5.98h0c1.723-3.192,5.699-4.448,8.904-2.75c4.71,2.494,12.68,5.321,24.613,5.321H300.134z"/>
		<circle style="fill:#FFFFFF;" cx="269.981" cy="122.292" r="18.969"/>
		<circle style="fill:#FFFFFF;" cx="330.152" cy="122.292" r="18.969"/>
		<path style="fill:#D4D7E8;" d="M449.818,310.541l-0.467,1.1c-1.255,2.939-4.204,4.827-7.376,4.729l-8.524-0.243l-3.347,7.843
			c-1.265,2.939-4.145,4.807-7.386,4.719l-8.524-0.243l-3.357,7.853c-1.226,2.871-4.048,4.729-7.152,4.729
			c-0.078,0-0.146,0-0.224-0.01l-3.863-0.107c-0.039-0.049-0.068-0.097-0.097-0.146c-0.603-0.934-1.207-1.878-1.82-2.841
			c-0.963-1.518-1.946-3.065-2.939-4.661c6.286,0.603,19.501-0.506,19.9-20.279l3.299,0.097l3.435-8.057
			c1.284-3.017,4.321-4.934,7.58-4.846l8.748,0.253l3.007-7.065c1.518,2.715,3.036,5.508,4.554,8.378
			c0.379,0.71,0.759,1.43,1.139,2.16c0.759,1.45,1.518,2.91,2.277,4.398C449.059,309.043,449.439,309.792,449.818,310.541z"/>
		<path style="fill:#BC6133;" d="M413.852,302.552c-5.102-33.162-50.325-74.496-81.135-90.893
			c-5.365-2.855-6.523-10.049-2.384-14.498c11.532-12.396,29.025-37.757,29.025-77.551c0-40.675-32.443-65.811-52.859-77.605
			c45.337,3.318,81.079,41.152,81.079,87.336c0,30.876-15.978,58.026-40.111,73.605l23.753,6.938
			c7.23,2.102,13.75,6.14,18.849,11.687c10.772,11.745,30.419,35.508,50.64,71.795l-3.007,7.065l-8.748-0.253
			c-3.26-0.088-6.296,1.829-7.58,4.846l-3.435,8.057l-3.299-0.097C414.699,309.967,414.466,306.503,413.852,302.552z"/>
		<path style="fill:#BC6133;" d="M442.345,353.085c-4.904,3.299-10.471,4.875-15.978,4.875c-9.41,0-18.654-4.583-24.172-13.03
			c-0.847-1.294-1.713-2.637-2.598-4.019l3.863,0.107c0.078,0.01,0.146,0.01,0.224,0.01c3.104,0,5.926-1.859,7.152-4.729
			l3.357-7.853l8.524,0.243c3.24,0.088,6.121-1.781,7.386-4.719l3.347-7.843l8.524,0.243c3.172,0.097,6.121-1.79,7.376-4.729
			l0.467-1.1c0.944,1.859,1.888,3.756,2.822,5.673C458.926,329.089,454.207,345.057,442.345,353.085z"/>
		<path style="fill:#D4D7E8;" d="M393.855,493.854c-2.978,2.365-7.191,3.056-11.015,1.703l-11.726-4.126l-7.853,8.563
			c2.803-6.461,4.379-15.064,4.768-25.018c1.606-0.165,3.27,0.029,4.856,0.584l11.414,4.038l6.335-7.191
			C391.734,479.218,392.814,486.38,393.855,493.854z"/>
		<path style="fill:#BC6133;" d="M349.443,289.162c-1.907-8.281,6.403-15.57,14.188-12.173c0.253,0.117,0.516,0.234,0.769,0.37
			c0.817,2.559,16.591,52.732,10.305,117.404c0,0,8.32,30.331,15.93,77.643l-6.335,7.191l-11.414-4.038
			c-1.586-0.555-3.25-0.749-4.856-0.584c0.837-21.321-3.766-48.898-13.536-75.113C354.493,399.862,362.969,347.947,349.443,289.162z
			"/>
		<path style="fill:#BC6133;" d="M365.266,544.241c-0.38,0.068-0.769,0.136-1.158,0.195c-19.053,3.153-37.299-9.03-41.6-27.85
			c-0.389-1.713-0.817-3.698-1.255-5.926c-0.058-0.292,3.746-2.705,7.016-1.022c6.637,3.454,15.161,5.605,24.279,2.131
			c4.603-1.752,8.164-5.878,10.714-11.775l7.853-8.563l11.726,4.126c3.824,1.353,8.038,0.662,11.015-1.703
			c0.438,3.182,0.876,6.422,1.304,9.721C397.66,522.94,384.514,540.952,365.266,544.241z"/>
		<path style="fill:#F9A073;" d="M244.999,214.819c-10.448,3.628-37.14,17.072-63.999,64.349c-1.788,3.147-0.536,7.153,2.737,8.695
			l4.093,1.928c2.998,1.413,6.572,0.219,8.123-2.711c7.478-14.124,29.369-52.689,51.952-65.975c1.056-0.621,1.696-1.759,1.696-2.985
			l0,0C249.601,215.734,247.253,214.036,244.999,214.819z"/>
		<path style="fill:#F9A073;" d="M250.985,438.134c-0.127,2.949-2.793,5.138-5.712,4.671l-6.588-1.051
			c-2.686-0.428-4.515-2.949-4.097-5.634c2.063-13.127,7.512-50.523,8.164-83.161c0.029-1.82,1.401-3.318,3.202-3.513
			c0.126-0.01,0.253-0.02,0.37-0.02c1.859,0,3.435,1.421,3.581,3.309C250.722,363.342,252.756,395.989,250.985,438.134z"/>
		<path style="fill:#D4D7E8;" d="M282.504,493.931c-0.457,2.267-0.915,4.476-1.362,6.607c-0.146,0.71-0.302,1.411-0.448,2.112
			c-0.594,2.793-1.168,5.459-1.732,7.999c-3.795,0.652-7.658-0.574-10.169-3.309l-7.931-8.631l-7.629,2.686
			c3.367-5.323,6.208-11.687,8.622-18.576c3.27-0.127,6.461,1.168,8.661,3.659l7.872,8.914L282.504,493.931z"/>
		<path style="fill:#BC6133;" d="M278.962,510.649c-0.457,2.063-0.895,4.038-1.333,5.936c-4.301,18.82-22.537,31.003-41.58,27.86
			c-0.399-0.068-0.788-0.136-1.177-0.204c-19.248-3.289-32.394-21.301-29.894-40.666c0.204-1.547,0.399-3.085,0.613-4.603
			c7.006,9.313,20.425,23.062,34.496,15.638c5.08-2.676,9.429-7.308,13.147-13.215l7.629-2.686l7.931,8.631
			C271.303,510.075,275.167,511.301,278.962,510.649z"/>
		<path style="fill:#BC6133;" d="M300,409.797l-0.01,0.01c-1.849,0.214-3.581,1.372-4.214,3.454
			c-0.097,0.302-0.175,0.633-0.214,0.973c-4.038,31.528-8.768,58.473-13.059,79.697l-4.116,1.46l-7.872-8.914
			c-2.199-2.491-5.391-3.785-8.661-3.659c5.663-16.163,8.923-35.216,10.782-50.562c0.253-2.102,0.487-4.145,0.691-6.092
			c1.343-12.699,14.188-20.853,26.206-16.533C299.689,409.681,299.844,409.739,300,409.797z"/>
		<path style="fill:#EF2043;" d="M344.191,95.836c-4.319-2.082-12.973-5.194-24.86-4.308c-1.465,0.109-2.748-0.975-2.857-2.44
			l-0.417-5.627c-0.095-1.276,0.73-2.45,1.972-2.759c2.879-0.717,8.674-1.506,17.326,0.301c7.545,1.577,11.929,5.063,14.269,7.686
			c1.501,1.683,1.531,4.212,0.093,5.949l0,0C348.37,96.267,346.094,96.753,344.191,95.836z"/>
		<path style="fill:#F9A073;" d="M271.221,61.964c-25.957,15.433-32.351,48.067-33.908,61.704c-0.212,1.822-1.035,3.449-2.264,4.678
			c-1.22,1.229-2.857,2.052-4.678,2.264c-4.908,0.575-9.154-3.449-8.809-8.384c3.352-47.987,35.685-59.405,48.96-62.076
			C271.601,59.93,272.176,61.398,271.221,61.964z"/>
		<path style="fill:#EF2043;" d="M255.943,95.836c4.319-2.082,12.973-5.194,24.86-4.308c1.465,0.109,2.748-0.975,2.857-2.44
			l0.417-5.627c0.095-1.276-0.73-2.45-1.972-2.759c-2.879-0.717-8.674-1.506-17.326,0.301c-7.545,1.577-11.929,5.063-14.269,7.686
			c-1.501,1.683-1.531,4.212-0.093,5.949l0,0C251.763,96.267,254.039,96.753,255.943,95.836z"/>
		<g>
			<path style="fill:#17172D;" d="M291.95,122.292c0-12.114-9.855-21.969-21.969-21.969c-12.114,0-21.97,9.855-21.97,21.969
				c0,12.114,9.855,21.97,21.97,21.97C282.095,144.261,291.95,134.406,291.95,122.292z M254.012,122.292
				c0-8.806,7.164-15.969,15.97-15.969s15.969,7.164,15.969,15.969s-7.163,15.97-15.969,15.97S254.012,131.097,254.012,122.292z"/>
			<path style="fill:#17172D;" d="M300,237.276c-7.558,0-13.706,6.148-13.706,13.706s6.148,13.706,13.706,13.706
				s13.706-6.148,13.706-13.706S307.558,237.276,300,237.276z M300,258.688c-4.249,0-7.706-3.457-7.706-7.706
				s3.457-7.706,7.706-7.706s7.706,3.457,7.706,7.706S304.249,258.688,300,258.688z"/>
			<path style="fill:#17172D;" d="M300,282.044c-7.558,0-13.706,6.148-13.706,13.706c0,7.558,6.148,13.707,13.706,13.707
				s13.706-6.148,13.706-13.707C313.706,288.193,307.558,282.044,300,282.044z M300,303.457c-4.249,0-7.706-3.457-7.706-7.707
				c0-4.249,3.457-7.706,7.706-7.706s7.706,3.457,7.706,7.706C307.706,300,304.249,303.457,300,303.457z"/>
			<path style="fill:#17172D;" d="M300,326.813c-7.558,0-13.706,6.148-13.706,13.706s6.148,13.707,13.706,13.707
				s13.706-6.149,13.706-13.707S307.558,326.813,300,326.813z M300,348.226c-4.249,0-7.706-3.457-7.706-7.707
				c0-4.249,3.457-7.706,7.706-7.706s7.706,3.457,7.706,7.706C307.706,344.769,304.249,348.226,300,348.226z"/>
			<path style="fill:#17172D;" d="M455.336,314.898c-24.197-49.547-49.893-81.011-63.058-95.358
				c-5.466-5.946-12.459-10.281-20.217-12.536l-17.732-5.18c22.813-17.073,36.25-43.72,36.25-72.484
				c0-49.945-40.634-90.579-90.579-90.579s-90.579,40.633-90.579,90.579c0,28.778,13.451,55.438,36.286,72.514l-17.628,5.149
				c-7.76,2.252-14.752,6.588-20.224,12.539c-13.173,14.356-38.881,45.834-63.055,95.355c-2.056,4.206-3.098,8.748-3.098,13.5
				c0,10.746,5.521,21.157,14.413,27.177c7.079,4.764,15.604,6.449,24.007,4.752c8.423-1.704,15.643-6.588,20.329-13.753
				c7.524-11.504,17.175-27.062,26.213-44.004c-4.011,21.484-7.858,54.401-4.271,91.94c-1.402,5.266-12.585,48.289-20.393,108.682
				c-2.725,21.109,11.49,40.439,32.351,44.004l1.208,0.21c2.168,0.357,4.325,0.531,6.458,0.531
				c18.124-0.001,34.384-12.516,38.536-30.683c1.462-6.392,3.108-13.951,4.85-22.558c0.006-0.023,0.008-0.046,0.014-0.069
				c4.235-20.938,9.034-48.103,13.121-80.01c0.22-1.707,1.655-1.853,2.091-1.856c0.55,0.007,1.871,0.162,2.115,1.813
				c4.85,33.061,11.218,74.788,15.438,96.038c-0.006,0.447,0.078,0.88,0.254,1.27c0.404,1.997,0.789,3.805,1.147,5.371
				c4.641,20.311,24.415,33.551,44.971,30.149c0.418-0.063,0.835-0.136,1.217-0.205c20.875-3.566,35.091-22.896,32.364-44.007
				c-7.807-60.392-18.989-103.415-20.392-108.681c3.582-37.547-0.265-70.464-4.274-91.944c9.039,16.943,18.689,32.501,26.214,44.006
				c5.886,9.011,15.861,14.39,26.684,14.39c6.31,0,12.414-1.862,17.653-5.387c0.002-0.002,0.004-0.003,0.007-0.005
				C457.382,346.531,462.244,329.047,455.336,314.898z M403.695,338.028c-0.052-0.005-0.104-0.007-0.155-0.009l-2.281-0.062
				c-1.951-3.048-3.997-6.304-6.11-9.741l3.367,0.096c0.029,0.001,0.058,0.001,0.087,0.001c1.197,0,2.284-0.714,2.758-1.82
				l3.357-7.855c0.772-1.809,2.563-2.963,4.531-2.908l8.524,0.244c1.221,0.051,2.361-0.687,2.846-1.821l3.346-7.843
				c0.764-1.788,2.605-2.949,4.541-2.899l8.524,0.243c1.221,0.021,2.363-0.689,2.847-1.825l0.899-2.114
				c1.909,3.524,3.819,7.17,5.725,10.92c-0.789,1.656-2.474,2.74-4.299,2.74c-0.048,0-0.096-0.001-0.143-0.003l-8.524-0.243
				c-1.2-0.029-2.36,0.688-2.845,1.821l-3.345,7.835c-0.782,1.819-2.597,2.947-4.544,2.906l-8.524-0.243
				c-1.23-0.034-2.359,0.686-2.845,1.819l-3.357,7.855C407.326,336.873,405.623,338.01,403.695,338.028z M160.256,301.828
				c0.483,1.138,1.639,1.86,2.847,1.825l8.521-0.243c1.951-0.041,3.779,1.111,4.544,2.898l3.348,7.844
				c0.484,1.135,1.617,1.867,2.845,1.821l8.501-0.244c0.035,0,0.07-0.001,0.105-0.001c1.952,0,3.69,1.133,4.449,2.911l3.357,7.854
				c0.474,1.106,1.561,1.82,2.758,1.82c0.029,0,0.058,0,0.087-0.001l3.369-0.097c-2.113,3.438-4.16,6.693-6.111,9.741l-2.283,0.063
				c-0.053,0.002-0.105,0.005-0.158,0.009c-1.908-0.007-3.624-1.146-4.376-2.908l-3.357-7.854c-0.485-1.134-1.628-1.851-2.845-1.819
				l-8.52,0.243c-2.014,0.046-3.767-1.088-4.546-2.898l-3.348-7.843c-0.483-1.135-1.609-1.855-2.845-1.821l-8.531,0.243
				c-1.836,0.077-3.625-1.039-4.434-2.736c1.905-3.75,3.815-7.396,5.724-10.92L160.256,301.828z M178.934,354.445
				c-6.813,1.377-13.73,0.013-19.461-3.845c-7.26-4.914-11.77-13.422-11.77-22.203c0-3.831,0.837-7.486,2.489-10.866
				c0.164-0.336,0.328-0.662,0.493-0.996c2.037,1.852,4.747,2.919,7.562,2.834l6.481-0.186l2.549,5.972
				c1.76,4.089,5.733,6.661,10.228,6.533l6.482-0.186l2.555,5.975c1.505,3.524,4.73,5.94,8.449,6.448
				C191.186,349.386,185.516,353.113,178.934,354.445z M276.517,507.801c-2.129-0.11-4.138-0.99-5.515-2.489l-7.931-8.632
				c-0.812-0.885-2.071-1.199-3.205-0.801l-11.726,4.126c-3.291,1.155-6.827,0.377-9.005-1.979l-7.901-8.622
				c-0.813-0.886-2.073-1.202-3.208-0.803l-11.729,4.128c-2.279,0.806-4.745,0.639-6.775-0.372c0.637-4.51,1.289-8.903,1.95-13.176
				l2.114,2.4c0.81,0.918,2.092,1.255,3.252,0.845l11.41-4.037c3.113-1.096,6.626-0.223,8.745,2.175l7.872,8.903
				c0.81,0.916,2.091,1.251,3.248,0.841l11.391-4.03c3.184-1.096,6.621-0.238,8.762,2.187l7.873,8.914
				c0.581,0.656,1.404,1.014,2.25,1.014c0.045,0,0.09-0.009,0.135-0.011C277.834,501.7,277.163,504.844,276.517,507.801z
				 M236.555,541.488l-1.18-0.205c-17.689-3.023-29.735-19.418-27.423-37.323c0.238-1.841,0.479-3.665,0.723-5.473
				c3.051,1.013,6.46,1.015,9.617-0.101l9.856-3.469l6.571,7.171c3.813,4.124,9.861,5.529,15.411,3.576l9.86-3.47l6.591,7.175
				c2.255,2.456,5.313,3.958,8.621,4.346c-0.169,0.748-0.336,1.483-0.5,2.201C270.769,533.136,253.999,544.367,236.555,541.488z
				 M390.614,492.356c-2.031,1.012-4.498,1.178-6.781,0.371l-11.726-4.126c-1.135-0.397-2.396-0.082-3.208,0.803l-7.893,8.613
				c-2.187,2.365-5.726,3.146-9.014,1.988l-11.726-4.126c-1.134-0.397-2.395-0.084-3.205,0.801l-7.932,8.632
				c-1.35,1.472-3.306,2.353-5.388,2.49c-0.551-2.836-1.137-6.006-1.749-9.435c0.757-0.063,1.481-0.396,2.005-0.989l7.871-8.913
				c2.144-2.426,5.583-3.283,8.739-2.194l11.415,4.038c1.158,0.41,2.438,0.075,3.248-0.841l7.873-8.904
				c2.118-2.396,5.633-3.271,8.739-2.175l11.415,4.038c1.16,0.41,2.443,0.073,3.252-0.845l2.114-2.4
				C389.325,483.453,389.978,487.846,390.614,492.356z M364.734,541.288c-0.352,0.063-0.712,0.127-1.116,0.188
				c-17.481,2.893-34.25-8.336-38.186-25.56c-0.157-0.685-0.32-1.43-0.486-2.203c3.302-0.391,6.353-1.892,8.603-4.343l6.592-7.175
				l9.86,3.47c5.549,1.953,11.599,0.548,15.42-3.585l6.563-7.162l9.853,3.467c3.16,1.119,6.57,1.116,9.623,0.102
				c0.244,1.808,0.485,3.631,0.723,5.472C394.497,521.866,382.45,538.26,364.734,541.288z M367.138,276.134
				c-0.011-0.025-0.028-0.045-0.039-0.069c-0.621-1.393-2.198-2.122-3.676-1.63c-1.572,0.524-2.422,2.223-1.897,3.795
				c0.009,0.027,0.024,0.068,0.038,0.105c0.886,2.793,16.325,52.686,10.157,116.138c-0.035,0.363-0.004,0.73,0.093,1.083
				c0.099,0.36,8.182,30.115,15.633,75.934l-4.056,4.603l-9.507-3.362c-5.391-1.902-11.515-0.351-15.232,3.858l-6.532,7.388
				l-9.53-3.371c-5.486-1.891-11.459-0.367-15.215,3.887l-6.516,7.379c-3.837-22.312-8.454-52.797-12.176-78.169
				c-0.602-4.099-3.895-6.942-8.023-6.942c-0.027,0-0.055,0-0.082,0c-4.171,0.038-7.456,2.954-7.987,7.094
				c-3.952,30.854-8.572,57.249-12.695,77.821l-0.597,0.212l-6.532-7.396c-3.755-4.251-9.724-5.779-15.237-3.878l-9.506,3.363
				l-6.531-7.387c-3.72-4.209-9.841-5.762-15.238-3.858l-9.502,3.361l-4.056-4.604c7.451-45.818,15.534-75.573,15.633-75.933
				c0.097-0.353,0.128-0.72,0.093-1.084c-6.176-63.429,9.269-113.34,10.156-116.137c0.001-0.003,0.003-0.005,0.004-0.008
				c0.003-0.007,0.003-0.015,0.006-0.022c0.003-0.01,0.008-0.025,0.011-0.033c0.002-0.007,0.002-0.014,0.005-0.022
				c0.111-0.322,0.177-0.665,0.177-0.998c0-1.657-1.343-3-3-3c-1.182,0-2.202,0.687-2.69,1.682
				c-0.001,0.002-0.002,0.003-0.003,0.005c-0.029,0.058-0.054,0.125-0.081,0.189c-0.001,0.002-0.002,0.004-0.003,0.006
				c-7.223,16.148-16.046,32.174-24.309,45.982l-5.2,0.14l-2.555-5.974c-1.739-4.073-5.773-6.615-10.221-6.551l-6.481,0.186
				l-2.546-5.964c-1.722-4.034-5.837-6.671-10.23-6.54l-6.479,0.185l-1.934-4.551c19.641-34.886,38.597-57.856,49.232-69.446
				c4.727-5.142,10.77-8.889,17.48-10.837l23.656-6.909c0.063-0.018,0.121-0.046,0.182-0.068c0.071-0.026,0.142-0.048,0.21-0.078
				c0.139-0.063,0.273-0.135,0.399-0.217c0.07-0.045,0.133-0.098,0.199-0.149c0.067-0.052,0.132-0.104,0.194-0.161
				c0.065-0.06,0.127-0.121,0.186-0.186c0.054-0.06,0.104-0.123,0.153-0.186c0.079-0.102,0.151-0.207,0.216-0.318
				c0.053-0.09,0.105-0.179,0.149-0.275c0.037-0.082,0.065-0.167,0.096-0.253c0.027-0.077,0.052-0.154,0.072-0.233
				c0.023-0.087,0.043-0.174,0.058-0.264c0.003-0.02,0.01-0.04,0.013-0.06c0.012-0.085,0.013-0.17,0.018-0.255
				c0.004-0.06,0.018-0.116,0.018-0.177c0-0.055-0.013-0.107-0.016-0.161c-0.006-0.113-0.015-0.225-0.034-0.335
				c-0.014-0.083-0.033-0.164-0.053-0.245c-0.023-0.09-0.051-0.177-0.082-0.264c-0.027-0.074-0.05-0.149-0.082-0.22
				c-0.063-0.14-0.137-0.275-0.22-0.405c-0.036-0.055-0.077-0.105-0.117-0.157c-0.065-0.088-0.134-0.173-0.21-0.253
				c-0.045-0.048-0.091-0.095-0.139-0.14c-0.088-0.082-0.182-0.158-0.28-0.231c-0.042-0.031-0.08-0.065-0.124-0.093
				c-0.008-0.005-0.014-0.012-0.022-0.017c-24.28-15.662-38.776-42.246-38.776-71.113c0-46.637,37.942-84.579,84.579-84.579
				s84.579,37.942,84.579,84.579c0,28.852-14.481,55.425-38.738,71.084c-0.986,0.637-1.511,1.791-1.342,2.953
				c0.169,1.162,1.001,2.118,2.128,2.448l23.757,6.939c6.709,1.95,12.753,5.697,17.477,10.834
				c10.629,11.584,29.577,34.546,49.23,69.448l-1.934,4.551l-6.481-0.185c-4.365-0.109-8.503,2.506-10.229,6.541l-2.544,5.964
				l-6.505-0.186c-4.479-0.117-8.459,2.479-10.197,6.549l-2.555,5.977l-5.202-0.148
				C383.181,308.302,374.359,292.277,367.138,276.134z M440.67,350.596c-4.245,2.855-9.191,4.365-14.304,4.365
				c-8.528,0-16.395-4.116-21.217-11.036c3.717-0.509,6.939-2.924,8.443-6.445l2.555-5.977l6.487,0.186
				c4.426,0.119,8.463-2.443,10.226-6.541l2.546-5.964l6.475,0.186c2.856,0.086,5.552-0.978,7.575-2.827
				c0.163,0.332,0.326,0.655,0.489,0.989C455.456,328.819,451.382,343.341,440.67,350.596z"/>
			<path style="fill:#17172D;" d="M352.122,122.292c0-12.114-9.855-21.969-21.97-21.969s-21.97,9.855-21.97,21.969
				c0,12.114,9.855,21.97,21.97,21.97S352.122,134.406,352.122,122.292z M330.152,138.261c-8.806,0-15.97-7.164-15.97-15.97
				s7.164-15.969,15.97-15.969s15.97,7.164,15.97,15.969S338.958,138.261,330.152,138.261z"/>
			<path style="fill:#17172D;" d="M323.343,157.647c-4.282,2.268-11.786,4.972-23.209,4.972H300
				c-11.423,0-18.927-2.704-23.209-4.972c-4.633-2.455-10.441-0.671-12.949,3.977c-1.452,2.692-1.543,5.939-0.243,8.687
				c3.165,6.694,12.103,17.925,36.401,17.925h0.134c24.296,0,33.235-11.23,36.401-17.925c1.3-2.749,1.208-5.997-0.245-8.688
				C333.784,156.978,327.977,155.192,323.343,157.647z M331.111,167.746c-2.56,5.412-9.987,14.49-30.978,14.49H300
				c-20.992,0-28.419-9.078-30.978-14.49c-0.487-1.03-0.449-2.253,0.1-3.272c0.663-1.228,1.927-1.931,3.219-1.931
				c0.557,0,1.12,0.131,1.642,0.407c4.884,2.587,13.362,5.67,26.018,5.67h0.134c12.655,0,21.134-3.083,26.018-5.67
				c1.729-0.917,3.909-0.234,4.859,1.524C331.561,165.493,331.599,166.716,331.111,167.746z"/>
			<path style="fill:#17172D;" d="M253.937,99.297c1.117,0,2.247-0.247,3.309-0.758c3.864-1.862,12.037-4.863,23.334-4.019
				c1.501,0.107,2.961-0.363,4.105-1.337c1.156-0.984,1.854-2.36,1.967-3.873l0.417-5.626c0.204-2.753-1.579-5.231-4.239-5.892
				c-3.611-0.898-9.779-1.58-18.663,0.276c-8.331,1.741-13.242,5.651-15.896,8.626c-2.501,2.805-2.571,6.951-0.165,9.859
				C249.583,98.337,251.734,99.297,253.937,99.297z M252.748,90.687c2.054-2.301,5.913-5.34,12.645-6.747
				c3.72-0.777,6.852-1.042,9.395-1.042c2.821,0,4.915,0.326,6.275,0.639l-0.369,4.975c-12.529-0.862-21.687,2.516-26.054,4.621
				c-0.661,0.32-1.449,0.152-1.912-0.407C252.234,92.13,252.243,91.253,252.748,90.687z"/>
			<path style="fill:#17172D;" d="M315.449,93.183c1.144,0.974,2.603,1.444,4.104,1.337c11.296-0.842,19.47,2.156,23.334,4.019
				c1.062,0.512,2.192,0.759,3.31,0.759c2.202,0,4.354-0.96,5.83-2.745c2.407-2.907,2.338-7.053-0.165-9.859
				c-2.652-2.974-7.563-6.885-15.895-8.625c-8.883-1.857-15.052-1.175-18.662-0.276c-2.661,0.661-4.444,3.139-4.24,5.892
				l0.417,5.626C313.595,90.823,314.293,92.199,315.449,93.183z M334.741,83.94c6.731,1.407,10.591,4.445,12.644,6.746
				c0.506,0.567,0.515,1.443,0.021,2.04c-0.463,0.559-1.248,0.729-1.912,0.407c-3.889-1.874-11.579-4.759-22.062-4.759
				c-1.289,0-2.62,0.044-3.991,0.138l-0.369-4.975C321.657,82.942,326.895,82.3,334.741,83.94z"/>
		</g>
	</g>
</g>
</svg>
