<?xml version="1.0" encoding="utf-8"?>
<!-- Generator: Adobe Illustrator 27.5.0, SVG Export Plug-In . SVG Version: 6.00 Build 0)  -->
<svg version="1.1" xmlns="http://www.w3.org/2000/svg" xmlns:xlink="http://www.w3.org/1999/xlink" x="0px" y="0px"
	 viewBox="0 0 2200 2200" style="enable-background:new 0 0 2200 2200;" xml:space="preserve">
<g id="background">
	<rect style="fill:#FFFFFF;" width="2200" height="2200"/>
</g>
<g id="Objects">
	<g>
		<g>
			<path style="fill:#D34F4F;" d="M1601.409,593.18v770.742c0,126.548-78.447,239.843-196.897,284.382l-124.045,46.636
				l-235.179,88.416c-80.639,31.265-165.3,33.105-242.281,10.846c-112.642-32.549-208.834-116.707-251.822-235.735
				c-15.36-42.518-22.655-86.041-22.655-128.869c0-109.476,47.695-214.396,130.388-286.361
				c31.008-26.987,66.948-49.342,107.123-65.568l81.281-32.806V593.18H1601.409z"/>
			<path style="fill:#BC4B4B;" d="M1601.409,1137.236v226.686c0,126.548-78.447,239.843-196.897,284.382l-124.045,46.636
				c-26.313-52.091-41.127-110.974-41.127-173.322C1239.34,1316.677,1399.453,1149.119,1601.409,1137.236z"/>
			<path style="fill:#BC4B4B;" d="M876.737,1540.87c0,93.229-27.051,180.147-73.729,253.331
				c-112.642-32.549-208.834-116.707-251.822-235.735c-15.36-42.518-22.655-86.041-22.655-128.869
				c0-109.476,47.695-214.396,130.388-286.361C789.904,1227.052,876.737,1373.827,876.737,1540.87z"/>
			<path style="fill:#BC4B4B;" d="M1601.409,593.18v145.352c-5.273,1.701-10.889,2.621-16.729,2.621
				c-15.841,0-30.099-6.76-40.036-17.553c-9.947,10.793-24.205,17.553-40.036,17.553c-15.841,0-30.099-6.76-40.036-17.553
				c-9.937,10.793-24.195,17.553-40.036,17.553c-15.83,0-30.089-6.76-40.036-17.553c-9.937,10.793-24.195,17.553-40.025,17.553
				c-15.841,0-30.099-6.76-40.036-17.553c-9.948,10.793-24.206,17.553-40.036,17.553c-15.841,0-30.099-6.76-40.036-17.553
				c-9.937,10.793-24.195,17.553-40.036,17.553c-15.831,0-30.089-6.76-40.036-17.553c-9.937,10.793-24.195,17.553-40.036,17.553
				c-15.83,0-30.089-6.76-40.026-17.553c-9.948,10.793-24.206,17.553-40.036,17.553c-15.841,0-30.099-6.76-40.036-17.553
				c-9.937,10.793-24.195,17.553-40.036,17.553c-15.831,0-30.089-6.76-40.036-17.553c-9.937,10.793-24.195,17.553-40.036,17.553
				c-5.84,0-11.456-0.92-16.729-2.621V593.18H1601.409z"/>
			<path style="fill:#DDD7C5;" d="M1660.328,368.882c6.985-9.155,11.142-20.585,11.142-32.988c0-22.278-13.39-41.422-32.555-49.851
				c0.127-1.516,0.207-3.046,0.207-4.595c0-30.067-24.379-54.447-54.447-54.447c-15.834,0-30.093,6.764-40.034,17.557
				c-9.941-10.793-24.2-17.557-40.034-17.557c-15.834,0-30.093,6.764-40.034,17.557c-9.941-10.793-24.2-17.557-40.034-17.557
				c-15.834,0-30.093,6.764-40.034,17.557c-9.941-10.793-24.2-17.557-40.034-17.557c-15.834,0-30.093,6.764-40.034,17.557
				c-9.941-10.793-24.2-17.557-40.034-17.557c-15.834,0-30.093,6.764-40.034,17.557c-9.941-10.793-24.2-17.557-40.034-17.557
				s-30.093,6.764-40.034,17.557c-9.941-10.793-24.2-17.557-40.034-17.557s-30.093,6.764-40.034,17.557
				c-9.941-10.793-24.2-17.557-40.034-17.557c-15.834,0-30.093,6.764-40.034,17.557c-9.941-10.793-24.2-17.557-40.034-17.557
				s-30.093,6.764-40.034,17.557C894.149,233.764,879.89,227,864.056,227c-30.067,0-54.447,24.379-54.447,54.447
				c0,1.549,0.08,3.079,0.207,4.595c-19.165,8.43-32.555,27.573-32.555,49.851c0,12.404,4.157,23.833,11.142,32.988
				c-6.985,9.155-11.142,20.585-11.142,32.988c0,12.404,4.157,23.833,11.142,32.988c-6.985,9.155-11.142,20.585-11.142,32.988
				c0,12.404,4.157,23.833,11.142,32.988c-6.985,9.155-11.142,20.585-11.142,32.988s4.157,23.833,11.142,32.988
				c-6.985,9.156-11.142,20.585-11.142,32.988c0,22.212,13.312,41.306,32.385,49.774c-0.013,0.49-0.037,0.977-0.037,1.47
				c0,30.067,24.379,54.447,54.447,54.447c15.834,0,30.093-6.764,40.034-17.557c9.941,10.793,24.2,17.557,40.034,17.557
				s30.093-6.764,40.034-17.557c9.941,10.793,24.2,17.557,40.034,17.557c15.834,0,30.093-6.764,40.034-17.557
				c9.941,10.793,24.2,17.557,40.034,17.557s30.093-6.764,40.034-17.557c9.941,10.793,24.2,17.557,40.034,17.557
				s30.093-6.764,40.034-17.557c9.941,10.793,24.2,17.557,40.034,17.557c15.834,0,30.093-6.764,40.034-17.557
				c9.941,10.793,24.2,17.557,40.034,17.557c15.834,0,30.093-6.764,40.034-17.557c9.941,10.793,24.2,17.557,40.034,17.557
				c15.834,0,30.093-6.764,40.034-17.557c9.941,10.793,24.2,17.557,40.034,17.557c15.834,0,30.093-6.764,40.034-17.557
				c9.941,10.793,24.2,17.557,40.034,17.557c30.067,0,54.447-24.379,54.447-54.447c0-0.493-0.024-0.98-0.037-1.47
				c19.073-8.468,32.385-27.563,32.385-49.774c0-12.404-4.157-23.833-11.142-32.988c6.985-9.155,11.142-20.585,11.142-32.988
				s-4.157-23.833-11.142-32.988c6.985-9.155,11.142-20.585,11.142-32.988c0-12.404-4.157-23.833-11.142-32.988
				c6.985-9.155,11.142-20.585,11.142-32.988C1671.47,389.467,1667.313,378.037,1660.328,368.882z"/>
		</g>
		<ellipse style="fill:#D6D6D6;" cx="1100" cy="1938.772" rx="504.329" ry="34.228"/>
	</g>
</g>
</svg>
