<?xml version="1.0" encoding="utf-8"?>
<!-- Generator: Adobe Illustrator 27.5.0, SVG Export Plug-In . SVG Version: 6.00 Build 0)  -->
<svg version="1.1" xmlns="http://www.w3.org/2000/svg" xmlns:xlink="http://www.w3.org/1999/xlink" x="0px" y="0px"
	 viewBox="0 0 500 500" style="enable-background:new 0 0 500 500;" xml:space="preserve">
<g id="BACKGROUND">
	<rect style="fill:#FCFCFC;" width="500" height="500"/>
</g>
<g id="OBJECTS">
	<g>
		<g>
			<g>
				<g>
					<defs>
						<ellipse id="XMLID_00000144327122892707482120000006328202141676476858_" cx="250" cy="250" rx="210.507" ry="212.01"/>
					</defs>
					<use xlink:href="#XMLID_00000144327122892707482120000006328202141676476858_"  style="overflow:visible;fill:#43534B;"/>
					<clipPath id="XMLID_00000046304474110260875730000007725197946297278894_">
						<use xlink:href="#XMLID_00000144327122892707482120000006328202141676476858_"  style="overflow:visible;"/>
					</clipPath>
					
						<use xlink:href="#XMLID_00000144327122892707482120000006328202141676476858_"  style="overflow:visible;fill:none;stroke:#797879;stroke-miterlimit:10;"/>
				</g>
				<g>
					<defs>
						<ellipse id="SVGID_1_" cx="250" cy="250" rx="210.507" ry="212.01"/>
					</defs>
					<clipPath id="SVGID_00000021825541966312352360000012287295987422126720_">
						<use xlink:href="#SVGID_1_"  style="overflow:visible;"/>
					</clipPath>
					<g style="clip-path:url(#SVGID_00000021825541966312352360000012287295987422126720_);">
						<g>
							<defs>
								<path id="XMLID_00000059271951977589612160000001540572829548407213_" d="M196.53,245.152
									c-7.181,0.781-19.134,2.17-31.86,7.966c-55.446,25.252-81.04,113.867-72.988,219.36
									c98.476,2.723,196.952,5.445,295.427,8.168c2.827-19.763,9.827-86.454-31.667-148.185
									C325.291,287.604,264.427,237.769,196.53,245.152z"/>
							</defs>
							<use xlink:href="#XMLID_00000059271951977589612160000001540572829548407213_"  style="overflow:visible;fill:#A73E2B;"/>
							<clipPath id="XMLID_00000108298875983988234070000017734503720295223425_">
								<use xlink:href="#XMLID_00000059271951977589612160000001540572829548407213_"  style="overflow:visible;"/>
							</clipPath>
							
								<rect x="204.003" y="302.504" style="clip-path:url(#XMLID_00000108298875983988234070000017734503720295223425_);fill:#EFEFEE;" width="73.409" height="188.254"/>
							<path style="opacity:0.09;clip-path:url(#XMLID_00000108298875983988234070000017734503720295223425_);fill:#422025;" d="
								M415.3,484.535c-44.201,24.737-95.232,25.938-130.529,1.167c-31.845-22.349-42.668-60.075-45.183-68.842
								c-6.882-23.988-5.823-44.812-4.197-57.387c-1.975-0.026-45.698-1.382-67.247-39.458
								c-14.916-26.357-13.108-59.532,4.634-84.788c34.97,1.815,69.94,3.63,104.909,5.445
								C323.559,321.96,369.43,403.247,415.3,484.535z"/>
							<path style="opacity:0.14;clip-path:url(#XMLID_00000108298875983988234070000017734503720295223425_);fill:#FFFFFF;" d="
								M112.535,481.423c-10.041,0.908-20.081,1.815-30.122,2.723c-3.259-14.99-30.231-147.23,43.639-208.47
								c8.132-6.741,18.218-13.23,30.789-18.457c-11.537,11.908-23.506,27.085-33.493,46.071
								C83.78,378.518,104.971,457.219,112.535,481.423z"/>
						</g>
						<g>
							<defs>
								<path id="XMLID_00000141456817969751517510000015456734722540230062_" d="M319.719,430.173
									c12.24,13.977,24.968,21.306,33.018,25.086c10.677,5.014,36.156,16.978,61.403,5.834c4.169-1.84,18.096-8.621,25.488-22.169
									c16.928-31.027-11.974-76.357-28.384-102.096c-19.026-29.841-56.749-78.646-128.058-121.032
									C295.363,287.255,307.541,358.714,319.719,430.173z"/>
							</defs>
							<use xlink:href="#XMLID_00000141456817969751517510000015456734722540230062_"  style="overflow:visible;fill:#A73E2B;"/>
							<clipPath id="XMLID_00000131358663520497863680000005229828293709844623_">
								<use xlink:href="#XMLID_00000141456817969751517510000015456734722540230062_"  style="overflow:visible;"/>
							</clipPath>
							<path style="opacity:0.09;clip-path:url(#XMLID_00000131358663520497863680000005229828293709844623_);fill:#422025;" d="
								M385.564,354.63c-34.003-11.622-68.005-23.244-102.008-34.867c5.811-32.587,11.623-65.174,17.434-97.761
								c19.567,13.094,39.133,26.188,58.699,39.283c-1.814,1.927-12.551,12.977-28.191,12.057
								c-6.27-0.369-11.192-2.536-14.289-4.278c-3.642,7.106-7.663,17.999-4.248,28.781c3.549,11.206,13.119,15.948,32.825,28.781
								C355.543,332.98,369.305,342.308,385.564,354.63z"/>
							<path style="opacity:0.1;clip-path:url(#XMLID_00000131358663520497863680000005229828293709844623_);fill:#FFFFFF;" d="
								M419.548,479.09c-28.826,9.612-65.674-7.957-93.455-38.894c12.095,8.216,29.213,16.722,50.59,19.058
								c13.814,1.509,38.666,4.224,52.52-10.89c9.306-10.153,9.543-23.871,9.654-30.337c0.944-54.737-70.413-134.131-82.009-146.848
								c7.623,0.921,68.027,9.193,95.525,60.115C480.519,383.414,465.341,463.821,419.548,479.09z"/>
						</g>
						<g>
							<defs>
								<path id="XMLID_00000103261506546919538160000003089560901336024742_" d="M255.422,263.619
									c-23.111,8.216-44.885-4.924-46.342-5.834c-24.572-15.35-35.811-50.233-24.715-85.189h109.417
									C302.482,215.719,283.658,253.581,255.422,263.619z"/>
							</defs>
							<use xlink:href="#XMLID_00000103261506546919538160000003089560901336024742_"  style="overflow:visible;fill:#E5B095;"/>
							<clipPath id="XMLID_00000101082528649385347170000014462259049876716466_">
								<use xlink:href="#XMLID_00000103261506546919538160000003089560901336024742_"  style="overflow:visible;"/>
							</clipPath>
							<path style="opacity:0.1;clip-path:url(#XMLID_00000101082528649385347170000014462259049876716466_);fill:#A73E2B;" d="
								M299.961,200.352c-8.194-5.65-28.029-17.671-55.931-18.799c-34.672-1.401-59.227,14.931-66.809,20.43
								c0-10.829,0-21.658,0-32.487h136.901C309.401,179.782,304.681,190.067,299.961,200.352z"/>
							<path style="opacity:0.05;clip-path:url(#XMLID_00000101082528649385347170000014462259049876716466_);fill:#A73E2B;" d="
								M315.666,261.076H181.469c1.006-21.65,2.012-43.301,3.017-64.951c1.168,6.849,4.537,20.888,15.133,30.35
								c4.158,3.713,7.271,4.795,9.268,5.251c8.957,2.045,16.699-3.645,18.565-5.096c8.066,0.973,16.132,1.946,24.198,2.918
								c2.344,1.36,11.358,6.224,20.184,2.761c7.573-2.972,10.753-10.405,14.288-18.669c3.82-8.929,4.81-17.062,5.02-22.558
								C299.318,214.414,307.492,237.745,315.666,261.076z"/>
						</g>
						<path style="fill:#EFEFEE;" d="M252.59,178.572c4.537-5.162,12.444-7.494,18.279-4.927c0.326,0.143,4.596,2.064,4.377,4.149
							c-0.212,2.013-4.306,2.397-11.328,4.927c-10.123,3.646-13.456,7.112-14.932,5.704
							C247.52,187.028,249.709,181.85,252.59,178.572z"/>
						<path style="fill:#EFEFEE;" d="M268.552,163.014c0.287,11.236,4.449,17.313,6.694,19.965c1.424,1.684,5.044,5.963,7.724,4.927
							c2.018-0.78,2.469-4.174,2.574-5.186c-1.53,6.432,1.152,12.064,5.149,13.483c3.188,1.132,6.632-0.621,8.496-2.334
							c3.881-3.567,4.638-10.385,1.545-16.854C290.007,172.349,279.279,167.681,268.552,163.014z"/>
						<g>
							<defs>
								<path id="XMLID_00000096771647822872226990000010799509674172796056_" d="M242.549,250.655
									c13.653-1.172,23.611-8.4,26.26-10.372c1.647-1.226,9.361-7.108,15.447-17.891c8.915-15.796,8.351-31.5,7.664-38.38
									c3.194-2.743,7.35-5.707,9.585-4.403c3.077,1.796-0.003,10.215-1.545,20.743c-3.411,23.298,4.343,32.143,5.664,74.935
									c0.01,0.321,0.013,0.415,0.014,0.461c0.101,4.075,0.15,25.025-12.114,41.544c-19.659,26.48-58.772,30.627-86.504,20.484
									c-6.807-2.49-25.899-9.638-36.301-28.263c-11.981-21.452,3.348-40.746,5.535-92.956c0.598-14.283,0.085-25.907-0.386-33.06
									c3.261-0.691,6.522-1.383,9.783-2.074c-1.123,5.648-3.824,23.114,5.921,40.449
									C203.27,242.679,226.748,252.011,242.549,250.655z"/>
							</defs>
							<use xlink:href="#XMLID_00000096771647822872226990000010799509674172796056_"  style="overflow:visible;fill:#EFEFEE;"/>
							<clipPath id="XMLID_00000067216133186564291310000017528463105576390022_">
								<use xlink:href="#XMLID_00000096771647822872226990000010799509674172796056_"  style="overflow:visible;"/>
							</clipPath>
							<path style="opacity:0.03;clip-path:url(#XMLID_00000067216133186564291310000017528463105576390022_);fill:#422025;" d="
								M318.369,358.779H161.967V255.84c9.478,41.384,45.927,68.033,80.711,64.563c43.524-4.342,64.905-53.891,65.652-86.765
								c0.245-10.768-1.72-19.937-3.863-26.804C309.101,257.483,313.735,308.131,318.369,358.779z"/>
						</g>
						<path style="fill:#E5B095;" d="M225.3,246.798c3.171,7.414,10.692,11.715,18.022,10.598
							c5.964-0.909,11.022-5.285,13.162-11.279C246.089,246.344,235.694,246.571,225.3,246.798z"/>
						<g>
							<defs>
								<path id="XMLID_00000171708782673897453230000016287182676561689737_" d="M252.333,328.572
									c-6.098,10.516-6.383,22.049-6.951,45.117c-0.569,23.09-0.713,34.783,6.179,42.005c2.266,2.375,11.037,5.861,28.578,12.835
									c12.355,4.912,17.076,6.404,20.467,7.39c13.733,3.992,20.599,5.988,25.488,4.278c5.302-1.855,9.426-6.91,18.15-39.672
									c7.732-29.035,11.521-43.77,7.724-54.451C347,332.106,336.312,324.2,328.024,318.07
									c-10.404-7.695-23.918-17.69-41.321-15.169C265.432,305.984,254.127,325.477,252.333,328.572z"/>
							</defs>
							<use xlink:href="#XMLID_00000171708782673897453230000016287182676561689737_"  style="overflow:visible;fill:#EFEFEE;"/>
							<clipPath id="XMLID_00000067935399907829359410000006606253557392528566_">
								<use xlink:href="#XMLID_00000171708782673897453230000016287182676561689737_"  style="overflow:visible;"/>
							</clipPath>
							<path style="opacity:0.19;clip-path:url(#XMLID_00000067935399907829359410000006606253557392528566_);fill:#422025;" d="
								M276.662,363.576c-2.28,14.016-7.998,37.306-13.13,36.949c-4.123-0.286-7.041-15.782-7.048-28.003
								c-0.017-27.278,14.453-53.044,19.792-51.729C281.511,322.083,278.927,349.656,276.662,363.576z"/>
							<path style="opacity:0.03;clip-path:url(#XMLID_00000067935399907829359410000006606253557392528566_);fill:#422025;" d="
								M355.442,332.461c7.083,120.714-1.787,148.456-11.585,150.518c-10.234,2.154-17.617-24.519-52.392-37.727
								c-16.156-6.136-25.897-4.684-36.815-14.391c-11.745-10.441-15.599-25.568-16.992-36.949
								c2.922,3.836,24.461,31.299,53.679,29.948C324.399,422.332,357.571,384.355,355.442,332.461z"/>
						</g>
						<path style="fill:#422025;" d="M229.9,246.952c0.711-0.102,1.841-0.296,3.188-0.681c4.879-1.396,5.3-3.21,8.059-3.331
							c2.546-0.111,2.874,1.402,7.301,2.163c1.835,0.315,3.388,0.332,4.444,0.292c-0.819,0.946-2.142,2.263-4.058,3.406
							c-1.321,0.788-3.96,2.111-7.532,2.304c-1.225,0.066-4.002,0.184-7.153-1.234C232.146,248.968,230.743,247.782,229.9,246.952z"
							/>
						<g>
							<defs>
								<path id="XMLID_00000035498553647963389490000017799887900368198029_" d="M240.747,231.467
									c1.482-1.768,4.22-1.674,6.694-1.556c5.515,0.264,7.34,2.34,14.16,4.667c5.299,1.808,8.934,3.048,13.388,2.334
									c5.984-0.96,9.504-4.815,10.041-4.149c0.521,0.647-2.663,4.429-6.179,7.26c-3.682,2.965-7.122,4.399-8.496,4.927
									c-1.912,0.735-6.387,2.238-12.358,2.074c-5.096-0.14-11.948-0.327-15.705-5.186
									C239.992,238.865,238.687,233.925,240.747,231.467z"/>
							</defs>
							<use xlink:href="#XMLID_00000035498553647963389490000017799887900368198029_"  style="overflow:visible;fill:#EFEFEE;"/>
							<clipPath id="XMLID_00000060734588354041386310000000406734375956133270_">
								<use xlink:href="#XMLID_00000035498553647963389490000017799887900368198029_"  style="overflow:visible;"/>
							</clipPath>
							<path style="opacity:0.03;clip-path:url(#XMLID_00000060734588354041386310000000406734375956133270_);fill:#422025;" d="
								M285.6,259.211h-47.598v-24.369c15.022,8.915,23.59,12.155,25.702,9.719c0.505-0.583,0.641-1.49,0.407-2.723
								c1.177,2.234,3.547,2.865,4.827,2.042c1.259-0.809,1.164-2.83,1.159-2.917c0.396,0.371,1.296,1.107,2.606,1.264
								c1.071,0.129,2.91-0.07,3.186-1.07c0.198-0.717-0.503-1.497-0.733-1.735c1.162-0.354,2.426-0.855,3.726-1.571
								c5.307-2.924,7.939-7.639,9.075-10.112C287.172,238.23,286.386,248.721,285.6,259.211z"/>
						</g>
						<g>
							<defs>
								<path id="XMLID_00000176737819778098534740000011082710429006530725_" d="M238.691,231.467
									c-1.482-1.768-4.22-1.674-6.694-1.556c-5.515,0.264-7.34,2.34-14.16,4.667c-5.299,1.808-8.934,3.048-13.388,2.334
									c-5.984-0.96-9.504-4.815-10.041-4.149c-0.521,0.647,2.663,4.429,6.179,7.26c3.682,2.965,7.122,4.399,8.496,4.927
									c1.912,0.735,6.387,2.238,12.358,2.074c5.096-0.14,11.948-0.327,15.705-5.186
									C239.446,238.865,240.751,233.925,238.691,231.467z"/>
							</defs>
							<use xlink:href="#XMLID_00000176737819778098534740000011082710429006530725_"  style="overflow:visible;fill:#EFEFEE;"/>
							<clipPath id="XMLID_00000040565455373212011620000007510810603646944670_">
								<use xlink:href="#XMLID_00000176737819778098534740000011082710429006530725_"  style="overflow:visible;"/>
							</clipPath>
							<path style="opacity:0.03;clip-path:url(#XMLID_00000040565455373212011620000007510810603646944670_);fill:#422025;" d="
								M193.839,259.211h47.598v-24.369c-15.022,8.915-23.59,12.155-25.702,9.719c-0.505-0.583-0.641-1.49-0.407-2.723
								c-1.177,2.234-3.547,2.865-4.827,2.042c-1.259-0.809-1.164-2.83-1.159-2.917c-0.396,0.371-1.296,1.107-2.606,1.264
								c-1.071,0.129-2.91-0.07-3.186-1.07c-0.198-0.717,0.503-1.497,0.733-1.735c-1.162-0.354-2.426-0.855-3.726-1.571
								c-5.307-2.924-7.939-7.639-9.075-10.112C192.267,238.23,193.052,248.721,193.839,259.211z"/>
						</g>
						<g>
							<defs>
								<path id="XMLID_00000139992336787241753200000018383771863846058625_" d="M233.024,196.981
									c-0.086,6.828-0.172,13.656-0.257,20.484c-7.492,2.366-8.344,5.238-8.496,6.223c-0.806,5.221,9.474,12.851,18.601,11.733
									c3.551-0.435,9.676-2.531,9.976-6.547c0.255-3.404-3.83-6.128-4.377-6.482"/>
							</defs>
							<use xlink:href="#XMLID_00000139992336787241753200000018383771863846058625_"  style="overflow:visible;fill:#E5B095;"/>
							<clipPath id="XMLID_00000000190517868074577860000001197093108045971890_">
								<use xlink:href="#XMLID_00000139992336787241753200000018383771863846058625_"  style="overflow:visible;"/>
							</clipPath>
							<path style="opacity:0.1;clip-path:url(#XMLID_00000000190517868074577860000001197093108045971890_);fill:#A73E2B;" d="
								M260.442,241.255h-37.401v-16.724c3.057,1.702,9.383,4.684,17.898,4.862c9.424,0.197,16.42-3.147,19.502-4.862
								C260.442,230.106,260.442,235.681,260.442,241.255z"/>
							
								<rect x="178.958" y="171.217" style="opacity:0.1;clip-path:url(#XMLID_00000000190517868074577860000001197093108045971890_);fill:#A73E2B;" width="128.212" height="28.54"/>
						</g>
						<g>
							<g>
								<defs>
									<path id="XMLID_00000178900122731965121140000004834077401976257972_" d="M252.811,208.915
										c-2.099-4.312-0.579-8.673-0.229-9.682c2.292-6.603,10.17-13.186,17.167-10.605c5.708,2.105,8.264,9.294,7.554,14.985
										c-0.073,0.588-1.238,8.822-8.306,11.509C262.87,217.451,255.484,214.406,252.811,208.915z"/>
								</defs>
								<use xlink:href="#XMLID_00000178900122731965121140000004834077401976257972_"  style="overflow:visible;fill:#FFFFFF;"/>
								<clipPath id="XMLID_00000121265378069969594250000002529685096182279316_">
									<use xlink:href="#XMLID_00000178900122731965121140000004834077401976257972_"  style="overflow:visible;"/>
								</clipPath>
								<path style="opacity:0.03;clip-path:url(#XMLID_00000121265378069969594250000002529685096182279316_);fill:#422025;" d="
									M278.554,203.077c-0.333-1.051-2.93-8.904-8.698-10.316c-6.493-1.59-16.097,5.204-18.541,18.155
									c-1.717-6.639-3.434-13.279-5.15-19.918c1.927-1.19,11.518-6.84,22.318-3.423c3.641,1.152,6.397,3.011,8.297,4.611
									C277.371,195.815,277.963,199.446,278.554,203.077z"/>
							</g>
							<ellipse style="fill:#422025;" cx="264.571" cy="201.983" rx="6.638" ry="8.76"/>
							<g style="opacity:0.09;">
								<path style="fill:#A73E2B;" d="M251.304,195.423c-0.232-0.932-0.205-1.925,0.014-2.878c0.204-0.961,0.658-1.879,1.285-2.667
									c0.643-0.774,1.466-1.404,2.392-1.771c0.92-0.371,1.921-0.509,2.868-0.354c-1.82,0.559-3.35,1.458-4.429,2.803
									C252.336,191.884,251.726,193.577,251.304,195.423z"/>
							</g>
							<path style="fill:#422025;" d="M252.812,208.915c-1.068-2.464-1.545-5.255-1.18-8.021c0.391-2.763,1.612-5.405,3.357-7.585
								c1.706-2.227,3.973-4.028,6.583-5.226c1.32-0.578,2.751-0.925,4.218-1.056c1.478-0.088,2.976,0.136,4.39,0.621
								c2.826,1.072,4.969,3.37,6.259,5.905c1.288,2.562,1.882,5.4,1.803,8.213c-0.045,2.825-0.966,5.615-2.485,7.926
								c-1.547,2.3-3.63,4.183-6.006,5.448c2.108-1.659,3.895-3.685,5.101-5.988c1.213-2.296,1.809-4.846,1.715-7.387
								c-0.115-2.532-0.7-5.086-1.927-7.267c-1.18-2.185-2.971-4.025-5.214-4.843c-1.12-0.39-2.303-0.591-3.509-0.538
								c-1.204,0.091-2.401,0.381-3.559,0.833c-2.306,0.941-4.39,2.514-6.086,4.425c-0.447,0.462-0.805,0.993-1.202,1.497
								c-0.336,0.542-0.724,1.061-1.009,1.634c-0.631,1.117-1.112,2.317-1.398,3.575
								C252.045,203.599,252.193,206.305,252.812,208.915z"/>
						</g>
						<g>
							<g>
								<defs>
									<path id="XMLID_00000143586833684977026790000006354844743107792564_" d="M225.56,208.143
										c2.099-4.312,0.579-8.673,0.229-9.682c-2.292-6.603-10.17-13.186-17.167-10.605c-5.708,2.105-8.264,9.294-7.554,14.985
										c0.073,0.588,1.238,8.822,8.306,11.509C215.501,216.679,222.887,213.633,225.56,208.143z"/>
								</defs>
								<use xlink:href="#XMLID_00000143586833684977026790000006354844743107792564_"  style="overflow:visible;fill:#FFFFFF;"/>
								<clipPath id="XMLID_00000132769446011180204990000017438670805059950210_">
									<use xlink:href="#XMLID_00000143586833684977026790000006354844743107792564_"  style="overflow:visible;"/>
								</clipPath>
								<path style="opacity:0.03;clip-path:url(#XMLID_00000132769446011180204990000017438670805059950210_);fill:#422025;" d="
									M199.817,202.304c0.333-1.051,2.93-8.904,8.698-10.316c6.493-1.59,16.097,5.204,18.541,18.155
									c1.717-6.639,3.434-13.279,5.15-19.918c-1.927-1.19-11.518-6.84-22.318-3.423c-3.641,1.152-6.397,3.011-8.297,4.611
									C201,195.043,200.409,198.674,199.817,202.304z"/>
							</g>
							<ellipse style="fill:#422025;" cx="214.822" cy="200.945" rx="6.638" ry="8.76"/>
							<g style="opacity:0.09;">
								<path style="fill:#A73E2B;" d="M227.067,194.651c-0.422-1.847-1.032-3.54-2.13-4.867c-1.079-1.345-2.609-2.244-4.429-2.803
									c0.948-0.155,1.948-0.017,2.868,0.354c0.925,0.367,1.749,0.997,2.392,1.771c0.627,0.788,1.081,1.705,1.285,2.667
									C227.272,192.726,227.299,193.719,227.067,194.651z"/>
							</g>
							<path style="fill:#422025;" d="M225.56,208.143c0.619-2.61,0.767-5.316,0.149-7.833c-0.286-1.258-0.767-2.459-1.398-3.575
								c-0.285-0.573-0.673-1.092-1.009-1.634c-0.397-0.505-0.756-1.036-1.202-1.497c-1.695-1.911-3.78-3.483-6.086-4.425
								c-1.158-0.452-2.354-0.742-3.559-0.833c-1.206-0.054-2.389,0.148-3.509,0.538c-2.243,0.818-4.034,2.658-5.214,4.843
								c-1.226,2.181-1.811,4.734-1.927,7.267c-0.094,2.541,0.501,5.091,1.715,7.387c1.206,2.303,2.993,4.329,5.101,5.988
								c-2.377-1.265-4.459-3.148-6.006-5.448c-1.519-2.311-2.44-5.101-2.485-7.926c-0.079-2.814,0.515-5.651,1.803-8.213
								c1.289-2.535,3.432-4.832,6.259-5.905c1.415-0.484,2.912-0.709,4.39-0.621c1.467,0.132,2.898,0.478,4.218,1.056
								c2.61,1.199,4.877,3,6.583,5.227c1.745,2.18,2.966,4.822,3.357,7.585C227.105,202.888,226.627,205.678,225.56,208.143z"/>
						</g>
						<path style="fill:#EFEFEE;" d="M226.667,177.193c-4.537-5.162-12.444-7.494-18.279-4.927
							c-0.326,0.143-4.596,2.064-4.377,4.149c0.212,2.013,4.306,2.397,11.328,4.927c10.123,3.646,13.456,7.112,14.932,5.704
							C231.737,185.649,229.548,180.471,226.667,177.193z"/>
						<g style="opacity:0.24;">
							<path style="fill:#A73E2B;" d="M233.267,195.904c0.14,1.709,0.255,3.418,0.352,5.126l0.25,5.125l0.181,5.124l0.113,5.123
								l0.017,0.789l-0.826,0.304c-2.106,0.777-4.222,1.651-5.815,2.953c-0.792,0.634-1.394,1.409-1.603,2.094
								c-0.186,0.663-0.04,1.54,0.392,2.399c0.873,1.736,2.509,3.283,4.261,4.54c1.777,1.264,3.787,2.219,5.863,2.89
								c2.078,0.669,4.267,0.975,6.405,0.802c2.147-0.177,4.367-0.78,6.303-1.736c0.963-0.487,1.855-1.102,2.491-1.888
								c0.65-0.775,0.951-1.755,0.83-2.789c-0.14-1.028-0.657-2.058-1.342-2.964c-0.687-0.912-1.515-1.742-2.424-2.482
								c1.034,0.552,2.018,1.233,2.874,2.082c0.856,0.838,1.624,1.87,1.958,3.151c0.33,1.269,0.1,2.778-0.673,3.876
								c-0.738,1.121-1.751,1.951-2.804,2.624c-1.059,0.678-2.195,1.174-3.353,1.584c-1.163,0.402-2.347,0.723-3.594,0.905
								c-2.503,0.351-5.034,0.069-7.422-0.579c-2.396-0.656-4.647-1.747-6.708-3.147c-2.045-1.417-3.963-3.155-5.184-5.646
								c-0.586-1.229-0.976-2.806-0.502-4.423c0.51-1.57,1.573-2.602,2.611-3.388c1.058-0.792,2.179-1.37,3.309-1.865
								c1.129-0.505,2.283-0.87,3.44-1.208l-0.808,1.094l0.241-5.119l0.31-5.118l0.378-5.117
								C232.926,199.314,233.085,197.608,233.267,195.904z"/>
						</g>
						<g>
							<defs>
								<path id="XMLID_00000044154439224443963550000016574990486593879689_" d="M175.812,191.704
									c-1.034-0.682-2.856-1.645-5.136-1.593c-5.356,0.121-8.583,5.738-9.011,6.482c-4.82,8.39,1.123,19.325,2.317,21.521
									c3.715,6.834,9.221,10.703,12.765,12.69c0.851-5.146,1.483-11.357,1.395-18.395
									C178.042,204.334,177.02,197.327,175.812,191.704z"/>
							</defs>
							<use xlink:href="#XMLID_00000044154439224443963550000016574990486593879689_"  style="overflow:visible;fill:#E5B095;"/>
							<clipPath id="XMLID_00000057143230871589610930000006438442138213935295_">
								<use xlink:href="#XMLID_00000044154439224443963550000016574990486593879689_"  style="overflow:visible;"/>
							</clipPath>
							<path style="opacity:0.1;clip-path:url(#XMLID_00000057143230871589610930000006438442138213935295_);fill:#A73E2B;" d="
								M168.979,241.58h13.004v-52.449h-13.004c1.572,5.838,2.99,13.186,3.371,21.723
								C172.914,223.524,170.983,234.108,168.979,241.58z"/>
							<g style="opacity:0.17;clip-path:url(#XMLID_00000057143230871589610930000006438442138213935295_);">
								<path style="fill:#A73E2B;" d="M163.854,201.52c0.914-1.148,2.065-2.139,3.495-2.814c0.719-0.322,1.51-0.548,2.356-0.627
									c0.422-0.04,0.859-0.034,1.276,0.045c0.418,0.072,0.865,0.103,1.251,0.27c1.627,0.518,3.02,1.529,4.091,2.697
									c1.067,1.178,1.968,2.478,2.634,3.854c1.395,2.739,2.099,5.693,2.406,8.629c0.278,2.943,0.158,5.898-0.518,8.754
									c-0.673-2.856-1.226-5.62-1.973-8.297c-0.736-2.669-1.589-5.278-2.791-7.638c-1.184-2.331-2.693-4.572-4.768-5.649
									C169.316,199.525,166.477,200.282,163.854,201.52z"/>
							</g>
						</g>
						<g>
							<defs>
								<path id="XMLID_00000176764947376515574420000005904125859345494707_" d="M337.035,230.43
									c-3.702-3.071-7.508-6.515-11.328-10.372c-11.007-11.114-18.963-22.468-24.702-32.374
									c-26.56-11.793-48.226-12.215-60-11.446c-11.667,0.762-18.604,1.215-27.575,4.714c-7.513,2.93-29.65,13.142-41.679,15.77
									c-1.087,0.238-3.345,0.687-5.149-0.519c-3.519-2.35-2.894-9.372-2.574-12.965c0.459-5.165,1.572-5.499,1.802-10.372
									c0.081-1.716,0.009-3.075-1.03-10.372c-1.615-11.336-1.948-11.615-1.802-13.742c0.21-3.057,1.247-7.573,5.407-12.965
									c0.619-2.045,1.659-5.08,3.347-8.557c15.56-32.041,56.373-40.1,66.68-42.135c13.239-2.614,29.997-5.923,49.431,1.556
									c6.038,2.324,20.58,8.862,32.053,24.114c11.299,15.021,13.584,30.469,14.675,38.505c1.966,14.487-1.25,16.909-0.772,46.283
									c0.078,4.783,0.313,13.944,1.83,25.667C336.146,225.083,336.662,228.264,337.035,230.43z"/>
							</defs>
							<use xlink:href="#XMLID_00000176764947376515574420000005904125859345494707_"  style="overflow:visible;fill:#A73E2B;"/>
							<clipPath id="XMLID_00000084504273930325923170000009323015597409117619_">
								<use xlink:href="#XMLID_00000176764947376515574420000005904125859345494707_"  style="overflow:visible;"/>
							</clipPath>
							<path style="opacity:0.08;clip-path:url(#XMLID_00000084504273930325923170000009323015597409117619_);fill:#422025;" d="
								M295.922,153.939H162.965v-19.965c29.507-8.256,54.181-10.739,71.346-11.409c26.042-1.017,39.995,1.937,52.006,7.001
								c8.132,3.429,14.368,7.401,18.493,10.344C301.847,144.586,298.885,149.262,295.922,153.939z"/>
							<path style="opacity:0.15;clip-path:url(#XMLID_00000084504273930325923170000009323015597409117619_);fill:#422025;" d="
								M346.561,236.134c-16.879,0.771-33.759,1.541-50.638,2.312c9.768-37.419,10.7-66.179,9.445-86.322
								c0,0-1.671-26.833,0.257-26.966c0.883-0.061,0.775,14.593,7.981,17.632c2.446,1.031,5.062,0.441,6.951-0.259
								c-3.519,6.978-7.678,17.855-7.724,31.374C312.711,210.274,342.467,233.097,346.561,236.134z"/>
							<path style="clip-path:url(#XMLID_00000084504273930325923170000009323015597409117619_);fill:#EFEFEE;" d="M309.745,191.277
								c-1.596,10.092-34.857,18.213-154.729,15.16c2.344-23.231,4.688-46.462,7.032-69.693c12.681-1.94,32.241-4.43,56.301-5.363
								c18.998-0.737,87.128-3.378,92.168,15.298c1.27,4.705-2.605,6.533-3.604,18.669
								C305.722,179.815,310.427,186.966,309.745,191.277z"/>
							<path style="opacity:0.05;clip-path:url(#XMLID_00000084504273930325923170000009323015597409117619_);fill:#FFFFFF;" d="
								M338.579,149.013c-2.711-5.809-21.697-44.785-66.165-56.785c-36.151-9.755-75.416,2.023-102.209,30.337
								c0-17.286,0-34.572,0-51.858H319.27C325.707,96.809,332.143,122.911,338.579,149.013z"/>
							<path style="opacity:0.05;clip-path:url(#XMLID_00000084504273930325923170000009323015597409117619_);fill:#FFFFFF;" d="
								M218.091,100.525c-7.849,0.285-17.82,3.304-17.764,6.482c0.052,2.952,8.76,6.238,16.477,5.186
								c7.362-1.003,14.54-6.052,13.902-8.816C229.965,100.161,218.742,100.502,218.091,100.525z"/>
							<path style="opacity:0.05;clip-path:url(#XMLID_00000084504273930325923170000009323015597409117619_);fill:#FFFFFF;" d="
								M246.669,96.117c-2.636,0.559-4.663,6.499-2.317,8.816c2.015,1.99,6.914,0.97,7.981-1.556
								C253.598,100.382,249.357,95.547,246.669,96.117z"/>
							<path style="opacity:0.03;clip-path:url(#XMLID_00000084504273930325923170000009323015597409117619_);fill:#422025;" d="
								M297.129,206.437H156.56c-2.536-12.275-4.702-31.985,1.545-54.313c1.999-7.144,4.54-13.416,7.176-18.789
								c8.14,21.866,7.968,31.501,7.498,36.42c-0.048,0.5-1.256,4.565-1.748,10.156c-0.457,5.193-0.686,7.79,0.203,9.031
								c3.908,5.459,30.522-9.193,43.666-13.941c19.367-6.996,50.009-9.882,97.419,12.385
								C307.256,193.737,302.193,200.087,297.129,206.437z"/>
							<path style="opacity:0.03;clip-path:url(#XMLID_00000084504273930325923170000009323015597409117619_);fill:#422025;" d="
								M284.514,151.605c-11.082-6.735-24.016-4.932-37.073-3.111c-6.45,0.899-15.028,2.624-14.932,3.63
								c0.165,1.732,25.47-4.751,50.203,5.186c3.936,1.581,10.121,4.488,10.813,3.371
								C294.196,159.598,289.691,154.751,284.514,151.605z"/>
						</g>
						<g>
							<defs>
								<path id="XMLID_00000124878757163843742220000004693107538036242109_" d="M301.004,187.684
									c1.034-0.682,2.856-1.645,5.136-1.593c5.356,0.121,8.583,5.738,9.011,6.482c4.82,8.39-1.123,19.325-2.317,21.521
									c-3.715,6.834-9.221,10.703-12.765,12.69c-0.851-5.146-1.483-11.357-1.395-18.395
									C298.775,200.314,299.797,193.307,301.004,187.684z"/>
							</defs>
							<use xlink:href="#XMLID_00000124878757163843742220000004693107538036242109_"  style="overflow:visible;fill:#E5B095;"/>
							<clipPath id="XMLID_00000096756174288145760400000002623710414506672050_">
								<use xlink:href="#XMLID_00000124878757163843742220000004693107538036242109_"  style="overflow:visible;"/>
							</clipPath>
							<path style="opacity:0.1;clip-path:url(#XMLID_00000096756174288145760400000002623710414506672050_);fill:#A73E2B;" d="
								M307.837,237.56h-13.004v-52.449h13.004c-1.572,5.838-2.99,13.186-3.371,21.723
								C303.902,219.505,305.834,230.088,307.837,237.56z"/>
							<g style="opacity:0.17;clip-path:url(#XMLID_00000096756174288145760400000002623710414506672050_);">
								<path style="fill:#A73E2B;" d="M312.963,197.5c-2.623-1.238-5.462-1.995-7.46-0.776c-2.075,1.077-3.584,3.318-4.768,5.649
									c-1.202,2.359-2.055,4.969-2.791,7.638c-0.747,2.678-1.299,5.442-1.972,8.297c-0.676-2.856-0.796-5.811-0.518-8.754
									c0.308-2.936,1.011-5.89,2.406-8.629c0.665-1.376,1.567-2.676,2.634-3.854c1.071-1.168,2.464-2.179,4.091-2.697
									c0.387-0.167,0.833-0.197,1.251-0.27c0.416-0.079,0.853-0.086,1.276-0.045c0.846,0.079,1.637,0.305,2.356,0.627
									C310.898,195.361,312.049,196.352,312.963,197.5z"/>
							</g>
						</g>
						<g>
							<defs>
								<path id="XMLID_00000112599144382355199390000016690625917657678477_" d="M343.471,222.392
									c1.461,0.059,6.593,0.337,11.585,3.889c0.944,0.671,8.276,6.074,8.882,15.557c0.598,9.359-5.806,15.626-7.724,17.502
									c-5.73,5.607-17.819,12.208-28.577,6.223c-8.191-4.557-12.062-14.436-10.813-22.947
									C318.785,229.259,332.962,221.964,343.471,222.392z"/>
							</defs>
							<use xlink:href="#XMLID_00000112599144382355199390000016690625917657678477_"  style="overflow:visible;fill:#EFEFEE;"/>
							<clipPath id="XMLID_00000183969070522797965920000005681690423702818743_">
								<use xlink:href="#XMLID_00000112599144382355199390000016690625917657678477_"  style="overflow:visible;"/>
							</clipPath>
							<path style="opacity:0.03;clip-path:url(#XMLID_00000183969070522797965920000005681690423702818743_);fill:#422025;" d="
								M370.246,267.929h-56.382c1.273-10.956,2.547-21.912,3.821-32.868c-0.29,13.328,2.509,22.693,6.993,23.631
								c1.028,0.215,2.873,0.139,5.664-2.334c-1.294,4.802,0.774,8.935,3.09,9.594c2.458,0.699,6.76-2.076,7.724-7.519
								c0.242,1.007,1.147,4.604,3.347,5.186c2.68,0.708,6.869-3.168,9.539-10.354c1.405,0.709,2.597,0.865,3.591,0.76
								c5.946-0.626,10.863-11.214,12.615-26.189C370.246,241.201,370.246,254.565,370.246,267.929z"/>
						</g>
						<g>
							<defs>
								<path id="XMLID_00000158728290954744310290000007410351257897061547_" d="M241.262,228.356
									c3.519,0.495,4.225,9.807,9.526,29.818c1.124,4.244,2.285,8.328,5.407,12.705c2.803,3.93,5.245,5.376,7.981,7.779
									c4.995,4.387,5.301,6.989,17.764,36.041c0.789,1.838,2.14,4.982,1.802,9.075c-0.391,4.727-2.831,8.245-4.377,10.112
									c-0.772,8.297-1.545,16.595-2.317,24.892c-5.921-5.618-11.843-11.236-17.764-16.854c-3.844-0.834-9.561-2.592-15.19-6.742
									c-1.226-0.904-3.252-2.514-12.1-12.965c-10.131-11.965-9.535-12.288-12.615-14.52c-5.726-4.148-10.343-4.886-10.813-8.297
									c-0.363-2.635,1.989-5.137,3.862-6.742c-0.902-1.73-1.243-3.296-1.287-4.667c-0.272-8.453,10.508-17.203,26.518-22.299
									c-1.114-6.305-1.714-11.629-2.06-15.557c-1.253-14.241,0.137-18.06,2.575-20.225
									C239.143,229.049,240.108,228.193,241.262,228.356z"/>
							</defs>
							<use xlink:href="#XMLID_00000158728290954744310290000007410351257897061547_"  style="overflow:visible;fill:#422025;"/>
							<clipPath id="XMLID_00000127766054710931549660000009165299840027530659_">
								<use xlink:href="#XMLID_00000158728290954744310290000007410351257897061547_"  style="overflow:visible;"/>
							</clipPath>
							<g style="opacity:0.31;clip-path:url(#XMLID_00000127766054710931549660000009165299840027530659_);">
								<path style="fill:#FFFFFF;" d="M246.405,269.875c-4.478-0.79-9.127-0.409-13.287,1.23c-4.161,1.619-7.7,4.597-10.947,7.661
									c-1.596,1.565-3.066,3.27-4.199,5.182c-0.591,0.942-1.044,1.956-1.454,2.981c-0.346,1.046-0.665,2.108-0.796,3.205
									c-0.163,1.085-0.226,2.234-0.078,3.294c0.152,1.063,0.645,2.072,1.556,2.631c0.888,0.586,2.044,0.734,3.147,0.63
									c1.114-0.104,2.208-0.443,3.249-0.9c-0.989,0.56-2.066,1.001-3.213,1.182c-1.132,0.185-2.377,0.138-3.456-0.462
									c-1.098-0.595-1.74-1.8-1.951-2.963c-0.213-1.188-0.194-2.339-0.074-3.506c0.182-2.347,1.062-4.584,2.229-6.588
									c1.162-2.022,2.661-3.815,4.289-5.451c1.674-1.606,3.461-3.022,5.308-4.395c1.87-1.345,3.903-2.529,6.102-3.271
									c2.19-0.758,4.482-1.187,6.78-1.274C241.91,269.005,244.211,269.261,246.405,269.875z"/>
								<path style="fill:#FFFFFF;" d="M215.619,292.918c-0.037,0.376-0.257,0.688-0.553,0.907c-0.298,0.227-0.694,0.329-1.08,0.313
									c-0.778-0.041-1.488-0.662-1.469-1.413c0.695,0.237,1.105,0.32,1.535,0.342
									C214.479,293.105,214.901,293.062,215.619,292.918z"/>
								<path style="fill:#FFFFFF;" d="M234.36,300.748c0.893,0.905,1.924,1.608,3.037,1.936c1.105,0.333,2.278,0.217,3.098-0.466
									c0.841-0.654,1.421-1.783,1.712-2.88c0.275-1.131,0.193-2.373-0.147-3.598c0.746,1.035,1.128,2.388,0.972,3.74
									c-0.18,1.349-0.747,2.642-1.873,3.581c-1.155,0.94-2.833,0.988-4.05,0.407C235.856,302.921,234.889,301.909,234.36,300.748z
									"/>
								<path style="fill:#FFFFFF;" d="M253.549,284.169c-2.294-0.883-4.706-1.441-7.14-1.557c-2.429-0.095-4.876,0.172-7.172,0.92
									c-4.659,1.463-8.318,4.86-11.899,8.165c-0.881,0.834-1.738,1.693-2.408,2.647c-0.677,0.943-1.129,2.021-0.997,3.076
									c0.112,1.055,0.753,2.028,1.618,2.766c0.867,0.772,1.894,1.226,3.033,1.356c2.289,0.255,4.637-0.649,6.692-1.831
									c2.069-1.219,3.938-2.79,5.632-4.526l0.271-0.277l0.267,0.252c1.444,1.361,3.617,1.853,5.549,1.277l0.534-0.159
									l-0.176,0.524c-0.563,1.676-0.642,3.549-0.101,5.27c0.526,1.722,1.636,3.271,3.11,4.364
									c-1.553-0.981-2.784-2.499-3.415-4.262c-0.641-1.756-0.703-3.737-0.141-5.551l0.358,0.365
									c-1.044,0.336-2.177,0.412-3.266,0.199c-1.09-0.211-2.12-0.723-2.963-1.45l0.538-0.026
									c-1.676,1.834-3.552,3.523-5.721,4.807c-2.149,1.254-4.621,2.284-7.28,2.03c-1.309-0.121-2.627-0.701-3.602-1.564
									c-0.999-0.831-1.86-2.035-1.989-3.453c-0.156-1.423,0.466-2.754,1.217-3.777c0.757-1.052,1.661-1.931,2.57-2.775
									c1.838-1.652,3.649-3.32,5.678-4.786c2.033-1.438,4.276-2.645,6.692-3.319C243.859,281.464,249.114,282.06,253.549,284.169z
									"/>
							</g>
						</g>
					</g>
				</g>
			</g>
			<g style="opacity:0.17;">
				<path style="fill:#FFFFFF;" d="M398.692,145.112c-11.741,0-11.76,18.246,0,18.246
					C410.432,163.358,410.452,145.112,398.692,145.112z"/>
				<path style="fill:#FFFFFF;" d="M366.154,189.271c-11.741,0-11.76,18.246,0,18.246
					C377.894,207.517,377.914,189.271,366.154,189.271z"/>
				<path style="fill:#FFFFFF;" d="M424.258,277.589c-11.741,0-11.76,18.246,0,18.246
					C435.998,295.835,436.018,277.589,424.258,277.589z"/>
				<path style="fill:#FFFFFF;" d="M116.307,188.109c-11.741,0-11.76,18.246,0,18.246
					C128.048,206.355,128.067,188.109,116.307,188.109z"/>
				<path style="fill:#FFFFFF;" d="M66.338,258.995c-11.741,0-11.76,18.246,0,18.246C78.078,277.242,78.098,258.995,66.338,258.995z
					"/>
				<path style="fill:#FFFFFF;" d="M138.387,241.564c-11.741,0-11.76,18.246,0,18.246
					C150.127,259.811,150.147,241.564,138.387,241.564z"/>
				<path style="fill:#FFFFFF;" d="M188.356,67.253c-11.741,0-11.76,18.246,0,18.246C200.096,85.499,200.116,67.253,188.356,67.253z
					"/>
				<path style="fill:#FFFFFF;" d="M147.683,115.705c-6.216,0-6.226,9.66,0,9.66C153.899,125.365,153.909,115.705,147.683,115.705z"
					/>
				<path style="fill:#FFFFFF;" d="M77.959,222.616c-6.216,0-6.226,9.66,0,9.66C84.174,232.276,84.184,222.616,77.959,222.616z"/>
				<path style="fill:#FFFFFF;" d="M87.255,330.689c-6.216,0-6.226,9.66,0,9.66C93.471,340.349,93.481,330.689,87.255,330.689z"/>
				<path style="fill:#FFFFFF;" d="M395.206,244.695c-6.216,0-6.226,9.66,0,9.66C401.421,254.355,401.432,244.695,395.206,244.695z"
					/>
				<path style="fill:#FFFFFF;" d="M427.744,191.24c-6.216,0-6.226,9.66,0,9.66C433.959,200.9,433.97,191.24,427.744,191.24z"/>
				<path style="fill:#FFFFFF;" d="M335.94,88.977c-6.216,0-6.226,9.66,0,9.66C342.155,98.637,342.166,88.977,335.94,88.977z"/>
				<path style="fill:#FFFFFF;" d="M268.539,55.277c-6.216,0-6.226,9.66,0,9.66C274.755,64.937,274.765,55.277,268.539,55.277z"/>
				<path style="fill:#FFFFFF;" d="M410.313,307.895c-4.144,0-4.151,6.44,0,6.44C414.456,314.335,414.463,307.895,410.313,307.895z"
					/>
				<path style="fill:#FFFFFF;" d="M439.365,237.009c-4.144,0-4.151,6.44,0,6.44C443.508,243.449,443.515,237.009,439.365,237.009z"
					/>
				<path style="fill:#FFFFFF;" d="M125.604,142.881c-4.144,0-4.151,6.44,0,6.44C129.747,149.32,129.754,142.881,125.604,142.881z"
					/>
				<path style="fill:#FFFFFF;" d="M118.631,274.195c-4.144,0-4.151,6.44,0,6.44C122.775,280.635,122.782,274.195,118.631,274.195z"
					/>
				<path style="fill:#FFFFFF;" d="M341.75,121.963c-4.144,0-4.151,6.44,0,6.44C345.894,128.403,345.901,121.963,341.75,121.963z"/>
			</g>
		</g>
		<g>
			<g>
				<g>
					<defs>
						<path id="XMLID_00000163043159069224521470000002460492090802740627_" d="M448.621,320.885
							c5.302-5.026,9.142-6.284,10.348-10.686c0.16-0.586,0.812-2.962-0.265-3.898c-1.727-1.503-6.234,1.132-6.602,0.438
							c-0.254-0.48,1.723-2.151,3.497-3.348c3.152-2.128,4.477-1.963,5.361-3.552c0.789-1.418,0.919-3.676-0.12-4.585
							c-1.553-1.359-5.278,0.691-6.464-0.954c-0.011-0.016-0.021-0.029-0.033-0.049c-0.609-0.984,1.026-2.732,2.856-5.503
							c2.28-3.451,4.333-6.559,3.319-8.502c-0.646-1.239-2.357-1.656-3.404-1.667c-2.338-0.023-4.183,1.954-5.947,3.846
							c-1.995,2.139-2.619,3.652-3.488,3.477c-1.077-0.217-0.79-2.678-2.291-3.266c-1.125-0.441-2.616,0.421-3.426,1.282
							c-0.84,0.894-1,1.843-1.466,5.167c-0.517,3.682-0.781,5.789-1.17,5.803c-0.448,0.015-0.315-2.765-1.969-3.571
							c-0.769-0.374-1.743-0.235-2.39,0.183c-1.456,0.94-1.329,3.336-1.262,4.608c0.072,1.352,0.554,3.005,1.515,6.256
							c0.326,1.104,0.776,2.572,0.487,2.713c-0.334,0.162-1.137-1.71-2.336-1.699c-0.981,0.009-1.7,1.274-1.799,1.454
							c-1.239,2.256,0.698,5.699,2.392,8.478c2.099,3.443,5.167,8.066,9.469,13.388
							C445.465,324.014,447.346,322.093,448.621,320.885z"/>
					</defs>
					<use xlink:href="#XMLID_00000163043159069224521470000002460492090802740627_"  style="overflow:visible;fill:#6E897E;"/>
					<clipPath id="XMLID_00000153700170969459742970000015463041946553257900_">
						<use xlink:href="#XMLID_00000163043159069224521470000002460492090802740627_"  style="overflow:visible;"/>
					</clipPath>
					<g style="opacity:0.3;clip-path:url(#XMLID_00000153700170969459742970000015463041946553257900_);">
						<path style="fill:#422025;" d="M443.332,334.096c-0.455-3.796-0.552-7.632-0.385-11.458l0.068-1.435
							c0.024-0.479,0.073-0.955,0.108-1.433c0.068-0.956,0.176-1.908,0.267-2.862c0.23-1.903,0.506-3.801,0.845-5.689
							c0.165-0.945,0.369-1.882,0.564-2.821c0.207-0.936,0.431-1.869,0.663-2.799c0.502-1.851,1.003-3.701,1.621-5.515
							c1.207-3.635,2.667-7.186,4.464-10.561c-1.097,3.661-2.166,7.296-3.105,10.961c-0.932,3.665-1.746,7.351-2.422,11.062
							c-0.704,3.707-1.223,7.446-1.665,11.202C443.925,326.508,443.628,330.286,443.332,334.096z"/>
					</g>
					<path style="opacity:0.07;clip-path:url(#XMLID_00000153700170969459742970000015463041946553257900_);fill:#422025;" d="
						M415.274,307.538c9.386,6.387,18.773,12.773,28.16,19.16c0.448-7.196,1.564-15.851,4.041-25.422
						c3.074-11.881,7.329-21.633,11.22-29.033c-1.255,0.364-2.51,0.728-3.765,1.092
						C441.711,284.736,428.492,296.137,415.274,307.538z"/>
				</g>
				<g>
					<defs>
						<path id="XMLID_00000119797253106228986590000016657178855425899196_" d="M437.234,331.609
							c-6.165,3.919-10.174,4.42-12.2,8.51c-0.269,0.544-1.363,2.752-0.485,3.877c1.408,1.806,6.335,0.08,6.564,0.832
							c0.158,0.519-2.103,1.781-4.072,2.618c-3.501,1.487-4.769,1.071-5.942,2.462c-1.045,1.241-1.605,3.433-0.759,4.523
							c1.265,1.631,5.313,0.331,6.163,2.172c0.008,0.018,0.015,0.033,0.024,0.054c0.409,1.083-1.529,2.485-3.856,4.856
							c-2.897,2.951-5.507,5.61-4.883,7.711c0.398,1.34,1.997,2.076,3.022,2.286c2.29,0.47,4.479-1.119,6.572-2.638
							c2.367-1.719,3.269-3.084,4.089-2.746c1.016,0.419,0.264,2.779,1.624,3.644c1.02,0.648,2.648,0.087,3.608-0.604
							c0.996-0.717,1.333-1.617,2.427-4.791c1.211-3.515,1.873-5.533,2.258-5.472c0.443,0.071-0.22,2.774,1.25,3.881
							c0.683,0.514,1.666,0.564,2.381,0.278c1.609-0.644,1.942-3.021,2.119-4.282c0.188-1.341,0.031-3.056-0.291-6.431
							c-0.109-1.146-0.27-2.673,0.041-2.756c0.359-0.096,0.789,1.896,1.968,2.114c0.965,0.178,1.912-0.926,2.044-1.084
							c1.647-1.978,0.404-5.727-0.728-8.779c-1.402-3.78-3.53-8.905-6.735-14.951C440.93,329.141,438.715,330.667,437.234,331.609z"
							/>
					</defs>
					<use xlink:href="#XMLID_00000119797253106228986590000016657178855425899196_"  style="overflow:visible;fill:#6E897E;"/>
					<clipPath id="XMLID_00000141416717149161875200000006445714265108422552_">
						<use xlink:href="#XMLID_00000119797253106228986590000016657178855425899196_"  style="overflow:visible;"/>
					</clipPath>
					<g style="opacity:0.3;clip-path:url(#XMLID_00000141416717149161875200000006445714265108422552_);">
						<path style="fill:#422025;" d="M444.95,319.652c-0.279,3.813-0.917,7.597-1.812,11.32l-0.341,1.396
							c-0.115,0.465-0.254,0.923-0.38,1.386c-0.25,0.925-0.538,1.839-0.81,2.759c-0.59,1.824-1.223,3.635-1.917,5.422
							c-0.343,0.896-0.723,1.776-1.093,2.661c-0.382,0.879-0.781,1.752-1.185,2.62c-0.846,1.721-1.692,3.441-2.646,5.104
							c-1.88,3.337-3.991,6.544-6.4,9.513c1.777-3.384,3.521-6.748,5.143-10.165c1.615-3.42,3.119-6.881,4.492-10.395
							c1.4-3.504,2.624-7.075,3.776-10.677C442.918,326.988,443.931,323.336,444.95,319.652z"/>
					</g>
					<path style="opacity:0.07;clip-path:url(#XMLID_00000141416717149161875200000006445714265108422552_);fill:#422025;" d="
						M434.61,351.076c-5.289,11.075-11.329,19.833-16.563,26.352c1.302-0.117,2.603-0.235,3.905-0.352
						c15.154-8.664,30.308-17.328,45.462-25.991c-7.993-8.063-15.985-16.126-23.978-24.19
						C441.621,333.872,438.871,342.155,434.61,351.076z"/>
				</g>
				<g>
					<defs>
						<path id="XMLID_00000077325963735816208580000007023562372751734657_" d="M448.201,332.669
							c4.786,5.519,5.873,9.411,10.218,10.81c0.578,0.186,2.923,0.942,3.906-0.092c1.578-1.659-0.856-6.278-0.146-6.615
							c0.49-0.233,2.072,1.817,3.19,3.642c1.987,3.243,1.763,4.559,3.311,5.513c1.381,0.851,3.632,1.08,4.585,0.083
							c1.426-1.492-0.457-5.304,1.239-6.416c0.016-0.011,0.03-0.02,0.05-0.031c1.01-0.565,2.684,1.145,5.372,3.097
							c3.347,2.43,6.361,4.619,8.347,3.692c1.266-0.591,1.759-2.282,1.815-3.327c0.127-2.335-1.768-4.265-3.579-6.111
							c-2.049-2.088-3.533-2.778-3.319-3.639c0.264-1.067,2.71-0.671,3.364-2.144c0.491-1.105-0.304-2.632-1.13-3.479
							c-0.856-0.879-1.797-1.08-5.097-1.693c-3.655-0.679-5.749-1.036-5.745-1.426c0.005-0.448,2.776-0.192,3.654-1.809
							c0.408-0.751,0.312-1.731-0.077-2.396c-0.874-1.496-3.274-1.475-4.547-1.464c-1.354,0.012-3.027,0.42-6.317,1.237
							c-1.117,0.277-2.604,0.661-2.731,0.367c-0.148-0.341,1.759-1.06,1.8-2.259c0.034-0.98-1.198-1.754-1.374-1.861
							c-2.199-1.337-5.724,0.445-8.576,2.015c-3.532,1.945-8.287,4.806-13.793,8.868
							C445.214,329.378,447.05,331.343,448.201,332.669z"/>
					</defs>
					<use xlink:href="#XMLID_00000077325963735816208580000007023562372751734657_"  style="overflow:visible;fill:#6E897E;"/>
					<clipPath id="XMLID_00000155118205077839504760000002424215411568678838_">
						<use xlink:href="#XMLID_00000077325963735816208580000007023562372751734657_"  style="overflow:visible;"/>
					</clipPath>
					<g style="opacity:0.3;clip-path:url(#XMLID_00000155118205077839504760000002424215411568678838_);">
						<path style="fill:#422025;" d="M463.611,330.188c-0.919-0.272-1.841-0.537-2.767-0.786c-0.93-0.236-1.857-0.481-2.793-0.688
							c-1.871-0.422-3.755-0.782-5.646-1.096c-0.949-0.133-1.896-0.283-2.848-0.394c-0.476-0.056-0.949-0.126-1.427-0.171
							l-1.431-0.131c-3.815-0.335-7.652-0.408-11.464-0.121c3.794,0.464,7.555,0.927,11.292,1.522
							c3.733,0.607,7.446,1.292,11.118,2.159c3.678,0.84,7.324,1.816,10.944,2.909c3.619,1.1,7.204,2.329,10.813,3.587
							c-3.292-1.944-6.775-3.56-10.353-4.926C467.264,331.354,465.437,330.771,463.611,330.188z"/>
					</g>
					<path style="opacity:0.07;clip-path:url(#XMLID_00000155118205077839504760000002424215411568678838_);fill:#422025;" d="
						M463.009,299.945c-6.796,9.095-13.591,18.19-20.387,27.285c7.169,0.766,15.767,2.264,25.219,5.161
						c11.734,3.597,21.288,8.279,28.508,12.493c-0.308-1.27-0.616-2.54-0.925-3.81C484.62,327.364,473.815,313.655,463.009,299.945z
						"/>
				</g>
			</g>
			<g>
				<defs>
					<path id="XMLID_00000145032258075552785680000009812410470135537808_" d="M451.767,344.733c2.713-1.417,3.488-4.25,3.728-5.127
						c0.935-3.417,0.422-9.31-4.086-11.229c-3.772-1.605-8.403,0.396-10.397,3.926c-2.501,4.427-0.165,10.038,3.6,12.133
						C444.93,344.612,448.421,346.481,451.767,344.733z"/>
				</defs>
				<use xlink:href="#XMLID_00000145032258075552785680000009812410470135537808_"  style="overflow:visible;fill:#A73E2B;"/>
				<clipPath id="XMLID_00000153691309051289972010000007790314399861590660_">
					<use xlink:href="#XMLID_00000145032258075552785680000009812410470135537808_"  style="overflow:visible;"/>
				</clipPath>
				<path style="opacity:0.07;clip-path:url(#XMLID_00000153691309051289972010000007790314399861590660_);fill:#422025;" d="
					M426.411,329.931c4.157,5.409,8.313,10.818,12.47,16.227c-0.012-0.449-0.085-9.207,7.334-13.926
					c6.726-4.278,13.83-1.559,14.525-1.279l-6.486-13.96L426.411,329.931z"/>
			</g>
			<g>
				<defs>
					<path id="XMLID_00000082348213640670432650000011531676849685813902_" d="M429.386,329.428
						c0.813,2.346,2.994,3.307,3.669,3.605c2.63,1.159,7.421,1.451,9.499-1.937c1.739-2.835,0.686-6.791-1.908-8.813
						c-3.254-2.536-8.036-1.332-10.167,1.439C430.3,323.955,428.383,326.534,429.386,329.428z"/>
				</defs>
				<use xlink:href="#XMLID_00000082348213640670432650000011531676849685813902_"  style="overflow:visible;fill:#A73E2B;"/>
				<clipPath id="XMLID_00000023978623740805737370000005898012693792376495_">
					<use xlink:href="#XMLID_00000082348213640670432650000011531676849685813902_"  style="overflow:visible;"/>
				</clipPath>
				<path style="opacity:0.07;clip-path:url(#XMLID_00000023978623740805737370000005898012693792376495_);fill:#422025;" d="
					M444.294,310.848l7.055,23.889l-11.978,3.537c0.308-0.524,3.339-5.9,0.709-11.809c-2.9-6.517-9.937-7.505-10.299-7.549
					C434.619,316.227,439.456,313.538,444.294,310.848z"/>
			</g>
			<g>
				<defs>
					<path id="XMLID_00000075873028519120570280000013195235007758434490_" d="M454.047,315.773
						c-1.552-1.939-3.928-2.115-4.664-2.169c-2.866-0.212-7.478,1.116-8.303,5.003c-0.69,3.253,1.626,6.629,4.747,7.666
						c3.915,1.301,8.018-1.433,9.099-4.758C455.017,321.236,455.961,318.164,454.047,315.773z"/>
				</defs>
				<use xlink:href="#XMLID_00000075873028519120570280000013195235007758434490_"  style="overflow:visible;fill:#A73E2B;"/>
				<clipPath id="XMLID_00000099648134254129464960000005784726982962295715_">
					<use xlink:href="#XMLID_00000075873028519120570280000013195235007758434490_"  style="overflow:visible;"/>
				</clipPath>
				<path style="opacity:0.07;clip-path:url(#XMLID_00000099648134254129464960000005784726982962295715_);fill:#422025;" d="
					M446.215,338.269l-14.641-20.152l10.104-7.341c-0.115,0.597-1.172,6.677,3.283,11.366c4.914,5.171,11.875,3.748,12.231,3.669
					C453.532,329.963,449.873,334.116,446.215,338.269z"/>
			</g>
		</g>
		<g>
			<g>
				<g>
					<defs>
						<path id="XMLID_00000107559121706041388540000017084250386419266487_" d="M90.806,115.331
							c-11.022,3.574-17.378,2.752-22.11,8.23c-0.63,0.729-3.184,3.686-2.283,5.762c1.446,3.331,9.697,2.636,9.75,3.881
							c0.037,0.86-3.935,1.902-7.292,2.405c-5.966,0.894-7.749-0.248-10.101,1.423c-2.098,1.491-3.826,4.635-2.96,6.645
							c1.296,3.006,8.028,2.615,8.602,5.78c0.006,0.03,0.011,0.056,0.015,0.093c0.199,1.825-3.334,3.21-7.847,5.927
							c-5.62,3.383-10.682,6.43-10.557,9.905c0.079,2.215,2.244,3.98,3.735,4.71c3.331,1.63,7.322,0.059,11.139-1.444
							c4.317-1.7,6.244-3.439,7.368-2.595c1.394,1.047-0.697,4.373,1.049,6.24c1.309,1.4,4.032,1.184,5.78,0.504
							c1.813-0.706,2.689-1.955,5.627-6.395c3.254-4.917,5.071-7.755,5.638-7.507c0.652,0.284-1.438,4.173,0.38,6.456
							c0.845,1.061,2.334,1.527,3.546,1.371c2.726-0.351,4.181-3.868,4.953-5.734c0.82-1.985,1.26-4.68,2.104-9.991
							c0.286-1.803,0.646-4.212,1.155-4.216c0.589-0.004,0.46,3.224,2.184,4.027c1.411,0.656,3.303-0.663,3.568-0.854
							c3.314-2.383,2.893-8.634,2.365-13.77c-0.654-6.362-1.889-15.076-4.412-25.631C97.462,113.006,93.456,114.472,90.806,115.331z
							"/>
					</defs>
					<use xlink:href="#XMLID_00000107559121706041388540000017084250386419266487_"  style="overflow:visible;fill:#6E897E;"/>
					<clipPath id="XMLID_00000176756623947320137770000017692416618879530392_">
						<use xlink:href="#XMLID_00000107559121706041388540000017084250386419266487_"  style="overflow:visible;"/>
					</clipPath>
					<g style="opacity:0.3;clip-path:url(#XMLID_00000176756623947320137770000017692416618879530392_);">
						<path style="fill:#422025;" d="M107.399,100.03c-1.941,5.744-4.422,11.302-7.273,16.665l-1.077,2.008
							c-0.361,0.669-0.756,1.317-1.133,1.977c-0.75,1.322-1.555,2.611-2.337,3.915c-1.629,2.567-3.32,5.097-5.095,7.567
							c-0.882,1.239-1.814,2.441-2.733,3.653c-0.936,1.199-1.894,2.38-2.86,3.554c-1.982,2.306-3.963,4.613-6.087,6.788
							c-4.21,4.379-8.725,8.466-13.602,12.07c4.071-4.492,8.084-8.966,11.93-13.57c3.837-4.611,7.519-9.33,11.022-14.181
							c3.539-4.826,6.837-9.824,10.034-14.899C101.369,110.489,104.373,105.283,107.399,100.03z"/>
					</g>
					<path style="opacity:0.07;clip-path:url(#XMLID_00000176756623947320137770000017692416618879530392_);fill:#422025;" d="
						M129.428,157.21c-26.708,7.293-53.416,14.587-80.124,21.88c-2.045-0.336-4.091-0.672-6.136-1.008
						c10.623-7.936,23.373-18.989,35.888-33.898c10.081-12.01,17.59-23.638,23.146-33.633
						C111.277,126.105,120.352,141.658,129.428,157.21z"/>
				</g>
				<g>
					<defs>
						<path id="XMLID_00000067918407535153965850000007216672056110215596_" d="M114.431,107.755
							c11.502-1.401,17.583,0.621,23.276-3.852c0.757-0.595,3.83-3.009,3.342-5.219c-0.783-3.546-9.014-4.441-8.828-5.674
							c0.129-0.852,4.226-1.114,7.618-0.966c6.027,0.263,7.559,1.725,10.186,0.534c2.344-1.062,4.641-3.818,4.175-5.956
							c-0.697-3.198-7.38-4.102-7.339-7.318c0-0.031,0-0.057,0.003-0.094c0.153-1.829,3.886-2.514,8.836-4.318
							c6.163-2.246,11.714-4.27,12.256-7.704c0.345-2.189-1.441-4.336-2.765-5.337c-2.958-2.237-7.176-1.457-11.21-0.712
							c-4.563,0.843-6.786,2.182-7.729,1.139c-1.168-1.294,1.52-4.159,0.163-6.326c-1.018-1.625-3.731-1.933-5.577-1.599
							c-1.915,0.346-3.013,1.405-6.746,5.201c-4.134,4.205-6.46,6.642-6.969,6.291c-0.586-0.404,2.209-3.821,0.862-6.41
							c-0.626-1.203-2-1.945-3.219-2.024c-2.743-0.177-4.844,2.998-5.958,4.682c-1.185,1.791-2.131,4.353-3.975,9.404
							c-0.626,1.715-1.44,4.011-1.94,3.917c-0.579-0.108,0.165-3.253-1.374-4.37c-1.259-0.914-3.369,0.02-3.666,0.156
							c-3.708,1.706-4.49,7.922-4.954,13.064c-0.574,6.369-1.028,15.159-0.569,26.002
							C107.454,108.764,111.666,108.092,114.431,107.755z"/>
					</defs>
					<use xlink:href="#XMLID_00000067918407535153965850000007216672056110215596_"  style="overflow:visible;fill:#6E897E;"/>
					<clipPath id="XMLID_00000062903847190213643950000005301644768323091091_">
						<use xlink:href="#XMLID_00000067918407535153965850000007216672056110215596_"  style="overflow:visible;"/>
					</clipPath>
					<g style="opacity:0.3;clip-path:url(#XMLID_00000062903847190213643950000005301644768323091091_);">
						<path style="fill:#422025;" d="M95.219,119.602c3.003-5.267,6.501-10.249,10.324-14.968l1.441-1.765
							c0.482-0.587,0.994-1.149,1.49-1.724c0.989-1.154,2.026-2.265,3.043-3.396c2.089-2.208,4.233-4.368,6.447-6.453
							c1.103-1.048,2.247-2.049,3.381-3.063c1.148-0.998,2.314-1.974,3.486-2.942c2.387-1.885,4.772-3.771,7.273-5.499
							c4.97-3.494,10.182-6.642,15.659-9.247c-4.854,3.631-9.649,7.255-14.304,11.039c-4.648,3.792-9.164,7.721-13.53,11.813
							c-4.397,4.06-8.588,8.336-12.697,12.706C103.138,110.489,99.194,115.024,95.219,119.602z"/>
					</g>
					<path style="opacity:0.07;clip-path:url(#XMLID_00000062903847190213643950000005301644768323091091_);fill:#422025;" d="
						M84.527,59.265c27.61-2.053,55.219-4.107,82.829-6.16c1.943,0.721,3.887,1.442,5.83,2.162
						c-11.944,5.759-26.572,14.171-41.706,26.413c-12.191,9.861-21.784,19.84-29.148,28.588
						C96.397,93.267,90.462,76.266,84.527,59.265z"/>
				</g>
				<g>
					<defs>
						<path id="XMLID_00000142177350582016205320000015023286478706829976_" d="M99.455,98.748
							c-3.083-11.169-1.981-17.482-7.244-22.453c-0.7-0.661-3.541-3.344-5.655-2.536c-3.392,1.298-3.062,9.571-4.309,9.569
							c-0.861-0.001-1.726-4.016-2.08-7.392c-0.629-6,0.59-7.73-0.975-10.154c-1.396-2.161-4.461-4.027-6.507-3.251
							c-3.06,1.162-2.968,7.904-6.154,8.339c-0.03,0.004-0.056,0.008-0.093,0.011c-1.832,0.119-3.06-3.472-5.575-8.102
							c-3.131-5.764-5.952-10.956-9.428-10.985c-2.216-0.019-4.076,2.065-4.871,3.523c-1.776,3.255-0.382,7.312,0.95,11.192
							c1.507,4.388,3.16,6.39,2.267,7.476c-1.107,1.346-4.337-0.89-6.281,0.772c-1.457,1.246-1.361,3.975-0.759,5.752
							c0.625,1.843,1.834,2.773,6.14,5.905c4.769,3.468,7.523,5.409,7.251,5.965c-0.313,0.639-4.105-1.621-6.467,0.094
							c-1.097,0.797-1.629,2.265-1.526,3.482c0.23,2.739,3.68,4.348,5.51,5.201c1.946,0.907,4.62,1.465,9.888,2.544
							c1.788,0.366,4.179,0.832,4.16,1.341c-0.022,0.589-3.242,0.317-4.12,2.004c-0.718,1.38,0.517,3.33,0.695,3.603
							c2.235,3.416,8.498,3.272,13.652,2.972c6.384-0.372,15.144-1.22,25.801-3.274C101.483,105.499,100.196,101.433,99.455,98.748z
							"/>
					</defs>
					<use xlink:href="#XMLID_00000142177350582016205320000015023286478706829976_"  style="overflow:visible;fill:#6E897E;"/>
					<clipPath id="XMLID_00000144295412765584481930000002897937455960611510_">
						<use xlink:href="#XMLID_00000142177350582016205320000015023286478706829976_"  style="overflow:visible;"/>
					</clipPath>
					<g style="opacity:0.3;clip-path:url(#XMLID_00000144295412765584481930000002897937455960611510_);">
						<path style="fill:#422025;" d="M114.008,116.001c-5.653-2.192-11.096-4.917-16.328-8.003l-1.959-1.165
							c-0.652-0.39-1.283-0.814-1.925-1.219c-1.287-0.808-2.54-1.669-3.808-2.508c-2.492-1.741-4.945-3.542-7.334-5.424
							c-1.199-0.936-2.359-1.92-3.528-2.892c-1.156-0.988-2.294-1.997-3.424-3.014c-2.216-2.082-4.433-4.163-6.512-6.381
							c-4.189-4.4-8.072-9.091-11.457-14.123c4.307,4.265,8.599,8.472,13.029,12.518c4.436,4.037,8.989,7.924,13.68,11.638
							c4.664,3.749,9.512,7.264,14.441,10.683C103.825,109.514,108.893,112.746,114.008,116.001z"/>
					</g>
					<path style="opacity:0.07;clip-path:url(#XMLID_00000144295412765584481930000002897937455960611510_);fill:#422025;" d="
						M55.909,135.48c-6.105-27.004-12.21-54.009-18.316-81.013c0.426-2.029,0.852-4.057,1.278-6.085
						c7.458,10.964,17.937,24.19,32.278,37.352c11.552,10.602,22.837,18.618,32.576,24.61
						C87.787,118.722,71.848,127.101,55.909,135.48z"/>
				</g>
			</g>
			<g>
				<defs>
					<path id="XMLID_00000174574578731560799570000012770070300417443475_" d="M102.588,79.043
						c-4.852,0.176-7.896,3.702-8.839,4.794c-3.672,4.252-6.961,13.039-1.82,18.864c4.303,4.874,12.3,5.171,17.565,1.481
						c6.603-4.629,7.092-14.256,3.132-19.827C112.294,83.886,108.572,78.826,102.588,79.043z"/>
				</defs>
				<use xlink:href="#XMLID_00000174574578731560799570000012770070300417443475_"  style="overflow:visible;fill:#A73E2B;"/>
				<clipPath id="XMLID_00000034076724317037723430000000935189441751782018_">
					<use xlink:href="#XMLID_00000174574578731560799570000012770070300417443475_"  style="overflow:visible;"/>
				</clipPath>
				<path style="opacity:0.07;clip-path:url(#XMLID_00000034076724317037723430000000935189441751782018_);fill:#422025;" d="
					M128.777,117.549l-48.693-0.495l0.248-24.414c0.804,0.876,9.115,9.62,21.666,8.089c13.842-1.688,19.719-14.275,20.009-14.926
					C124.264,96.385,126.52,106.967,128.777,117.549z"/>
			</g>
			<g>
				<defs>
					<path id="XMLID_00000168081356460955364080000015738165193178590638_" d="M124.176,116.238
						c0.438-3.914-2.028-6.779-2.791-7.666c-2.974-3.455-9.632-7.144-14.921-3.714c-4.425,2.871-5.619,9.253-3.287,13.919
						c2.925,5.852,10.593,7.395,15.537,4.882C119.13,123.448,123.635,121.065,124.176,116.238z"/>
				</defs>
				<use xlink:href="#XMLID_00000168081356460955364080000015738165193178590638_"  style="overflow:visible;fill:#A73E2B;"/>
				<clipPath id="XMLID_00000144331435198823352560000002994509716590582165_">
					<use xlink:href="#XMLID_00000168081356460955364080000015738165193178590638_"  style="overflow:visible;"/>
				</clipPath>
				<path style="opacity:0.07;clip-path:url(#XMLID_00000144331435198823352560000002994509716590582165_);fill:#422025;" d="
					M90.146,132.653l6.215-39.016l19.562,3.116c-0.799,0.54-8.809,6.166-9.08,16.42c-0.299,11.31,9.099,17.53,9.587,17.84
					C107.669,131.56,98.908,132.106,90.146,132.653z"/>
			</g>
			<g>
				<defs>
					<path id="XMLID_00000068639714472047960280000000855875980064419474_" d="M79.547,118.943c0.897,3.835,4.179,5.71,5.195,6.29
						c3.958,2.261,11.467,3.51,15.303-1.492c3.21-4.186,2.2-10.599-1.559-14.216c-4.715-4.536-12.457-3.424-16.275,0.597
						C81.889,110.46,78.441,114.213,79.547,118.943z"/>
				</defs>
				<use xlink:href="#XMLID_00000068639714472047960280000000855875980064419474_"  style="overflow:visible;fill:#A73E2B;"/>
				<clipPath id="XMLID_00000115510310570867108720000014831747920044169377_">
					<use xlink:href="#XMLID_00000068639714472047960280000000855875980064419474_"  style="overflow:visible;"/>
				</clipPath>
				<path style="opacity:0.07;clip-path:url(#XMLID_00000115510310570867108720000014831747920044169377_);fill:#422025;" d="
					M106.123,92.088l7.197,38.847l-19.477,3.609c0.572-0.777,6.238-8.758,3.063-18.512c-3.502-10.758-14.44-13.475-15.004-13.605
					C89.975,98.981,98.049,95.535,106.123,92.088z"/>
			</g>
		</g>
	</g>
</g>
</svg>
